<svg xmlns="http://www.w3.org/2000/svg" xmlns:xlink="http://www.w3.org/1999/xlink" viewBox="0 0 1200 1200">
  <defs>
    <clipPath id="bfd02a9f-8814-4411-8cd4-35334c77a901">
      <polygon points="2140.053 548.53 2140.053 390.248 2312.198 390.248 2312.198 813.991 2140.053 813.991 2140.053 655.708 2060.602 655.708 2060.602 813.991 1888.451 813.991 1888.451 390.248 2060.602 390.248 2060.602 548.53 2140.053 548.53" fill="none"/>
    </clipPath>
    <clipPath id="bd4e3890-2bd1-4bb2-8e83-91a51bc880a1">
      <polygon points="-418.258 548.53 -418.258 390.248 -246.114 390.248 -246.114 813.991 -418.258 813.991 -418.258 655.708 -497.71 655.708 -497.71 813.991 -669.861 813.991 -669.861 390.248 -497.71 390.248 -497.71 548.53 -418.258 548.53" fill="none"/>
    </clipPath>
    <clipPath id="a4570d28-a340-41e8-b998-40e216798fff">
      <polygon points="863.87 548.53 863.87 390.248 1036.014 390.248 1036.014 813.991 863.87 813.991 863.87 655.708 784.418 655.708 784.418 813.991 612.267 813.991 612.267 390.248 784.418 390.248 784.418 548.53 863.87 548.53" fill="none"/>
    </clipPath>
    <clipPath id="ba348399-4c5d-40dc-bf1f-bfc85411fc13">
      <rect x="-11320.604" y="-6221.596" width="13006.239" height="7316.009" fill="none"/>
    </clipPath>
    <clipPath id="a1d1ce38-f894-4bdb-9ad0-148962cbdcf2">
      <rect x="845.023" y="843.018" width="331.982" height="331.982" fill="none"/>
    </clipPath>
  </defs>
  <g id="b769d14d-482c-4008-aa09-760aad7c2b4a" data-name="Layer 1">
    <g clip-path="url(#bfd02a9f-8814-4411-8cd4-35334c77a901)">
      <rect x="-10044.42" y="-6221.596" width="13006.239" height="7316.009" fill="#fff"/>
    </g>
    <g clip-path="url(#bd4e3890-2bd1-4bb2-8e83-91a51bc880a1)">
      <rect x="-12602.732" y="-6221.596" width="13006.239" height="7316.009" fill="#fff"/>
    </g>
    <circle cx="600" cy="600" r="575" fill="#009ce2"/>
    <g>
      <polygon points="863.87 548.53 863.87 390.248 1036.014 390.248 1036.014 813.991 863.87 813.991 863.87 655.708 784.418 655.708 784.418 813.991 612.267 813.991 612.267 390.248 784.418 390.248 784.418 548.53 863.87 548.53" fill="#fff"/>
      <g clip-path="url(#a4570d28-a340-41e8-b998-40e216798fff)">
        <g>
          <rect x="-11320.604" y="-6221.596" width="13006.239" height="7316.009" fill="#fff"/>
          <g clip-path="url(#ba348399-4c5d-40dc-bf1f-bfc85411fc13)">
            <rect x="578.397" y="356.378" width="491.486" height="491.483" fill="#fff"/>
          </g>
        </g>
      </g>
    </g>
    <path d="M343.254,368.724c-128.49,0-232.652,104.161-232.653,232.651S214.762,834.027,343.252,834.028,575.9,729.867,575.905,601.377v0c.309-128.181-103.351-232.342-231.532-232.651Z" fill="#fff"/>
    <g>
      <circle cx="343.253" cy="602.12" r="205.974" fill="#50af95"/>
      <path d="M369.913,626.512h0c-1.489.112-9.182.571-26.343.571-13.65,0-23.341-.41-26.741-.571h0c-52.749-2.32-92.121-11.5-92.121-22.5s39.372-20.164,92.121-22.521v35.873c3.45.248,13.327.831,26.977.831,16.379,0,24.581-.682,26.058-.819v-35.86c52.637,2.345,91.923,11.527,91.923,22.5s-39.274,20.152-91.923,22.485h0Zm0-48.7v-32.1h73.459V496.755h-200v48.952h73.447V577.8c-59.7,2.742-104.592,14.568-104.592,28.738s44.894,25.984,104.592,28.739V738.14H369.9v-102.9c59.561-2.742,104.381-14.555,104.381-28.713S429.5,580.551,369.9,577.8h0Zm0,0Z" fill="#fff" fill-rule="evenodd"/>
    </g>
  </g>
  <g id="a6b45901-7857-4202-8a15-db449678e72f" data-name="AVAX">
    <g id="ea547972-b3e8-4e47-9f6f-69e5da520bf3" data-name="f2cdcc03-7b94-4cbe-87ca-cbe090b32b4c">
      <g clip-path="url(#a1d1ce38-f894-4bdb-9ad0-148962cbdcf2)">
        <g clip-path="url(#a1d1ce38-f894-4bdb-9ad0-148962cbdcf2)">
          <g>
            <path d="M1011.014,843.018a165.993,165.993,0,1,1-165.993,165.993,165.994,165.994,0,0,1,165.993-165.993" fill="#e84142" fill-rule="evenodd"/>
            <path d="M1069.569,1013.322c5.751-9.933,15.031-9.933,20.781,0l35.812,62.868c5.752,9.933,1.046,18.037-10.456,18.037h-72.147c-11.371,0-16.077-8.1-10.456-18.037ZM1000.3,892.293c5.751-9.933,14.9-9.933,20.651,0l7.972,14.377,18.822,33.067a34.359,34.359,0,0,1,0,29.931l-63.13,109.4a33.188,33.188,0,0,1-25.878,15.159H906.323c-11.5,0-16.207-7.973-10.456-18.037Z" fill="#fff"/>
          </g>
        </g>
      </g>
    </g>
  </g>
</svg>
