<svg id="e82ad328-24cb-49cc-86ca-0f869785b41e" data-name="Layer 1" xmlns="http://www.w3.org/2000/svg" xmlns:xlink="http://www.w3.org/1999/xlink" viewBox="0 0 1200 1200">
  <defs>
    <clipPath id="fef49bf2-f536-4f6d-b14d-e79847ef2535">
      <polygon points="863.87 548.53 863.87 390.248 1036.014 390.248 1036.014 813.991 863.87 813.991 863.87 655.708 784.418 655.708 784.418 813.991 612.267 813.991 612.267 390.248 784.418 390.248 784.418 548.53 863.87 548.53" fill="none"/>
    </clipPath>
    <clipPath id="b0e07043-bc73-4ec5-9a3f-22679f289188">
      <rect x="-11320.604" y="-6221.596" width="13006.239" height="7316.009" fill="none"/>
    </clipPath>
    <clipPath id="b80752cf-95b9-4872-9404-1f1053161122">
      <polygon points="-412.313 548.53 -412.313 390.248 -240.169 390.248 -240.169 813.991 -412.313 813.991 -412.313 655.708 -491.765 655.708 -491.765 813.991 -663.916 813.991 -663.916 390.248 -491.765 390.248 -491.765 548.53 -412.313 548.53" fill="none"/>
    </clipPath>
  </defs>
  <circle cx="600" cy="600" r="575" fill="#009ce2"/>
  <g>
    <polygon points="863.87 548.53 863.87 390.248 1036.014 390.248 1036.014 813.991 863.87 813.991 863.87 655.708 784.418 655.708 784.418 813.991 612.267 813.991 612.267 390.248 784.418 390.248 784.418 548.53 863.87 548.53" fill="#fff"/>
    <g clip-path="url(#fef49bf2-f536-4f6d-b14d-e79847ef2535)">
      <g>
        <rect x="-11320.604" y="-6221.596" width="13006.239" height="7316.009" fill="#fff"/>
        <g clip-path="url(#b0e07043-bc73-4ec5-9a3f-22679f289188)">
          <rect x="578.397" y="356.378" width="491.486" height="491.483" fill="#fff"/>
        </g>
      </g>
    </g>
  </g>
  <path d="M343.254,368.724c-128.49,0-232.652,104.161-232.653,232.651S214.762,834.027,343.252,834.028,575.9,729.867,575.905,601.377v0c.309-128.181-103.351-232.342-231.532-232.651Z" fill="#fff"/>
  <g>
    <circle cx="343.253" cy="602.12" r="205.974" fill="#50af95"/>
    <path d="M369.913,626.512h0c-1.489.112-9.182.571-26.343.571-13.65,0-23.341-.41-26.741-.571h0c-52.749-2.32-92.121-11.5-92.121-22.5s39.372-20.164,92.121-22.521v35.873c3.45.248,13.327.831,26.977.831,16.379,0,24.581-.682,26.058-.819v-35.86c52.637,2.345,91.923,11.527,91.923,22.5s-39.274,20.152-91.923,22.485h0Zm0-48.7v-32.1h73.459V496.755h-200v48.952h73.447V577.8c-59.7,2.742-104.592,14.568-104.592,28.738s44.894,25.984,104.592,28.739V738.14H369.9v-102.9c59.561-2.742,104.381-14.555,104.381-28.713S429.5,580.551,369.9,577.8h0Zm0,0Z" fill="#fff" fill-rule="evenodd"/>
  </g>
  <g clip-path="url(#b80752cf-95b9-4872-9404-1f1053161122)">
    <rect x="-12596.787" y="-6221.596" width="13006.239" height="7316.009" fill="#fff"/>
  </g>
</svg>
