<svg id="e141f2d8-7a1f-49fa-9e6d-3d76032c96d6" data-name="Layer 1" xmlns="http://www.w3.org/2000/svg" xmlns:xlink="http://www.w3.org/1999/xlink" viewBox="0 0 1200 1200">
  <defs>
    <clipPath id="f76cb9df-ba96-4fac-a84a-c0da3462f9e1">
      <polygon points="863.87 548.53 863.87 390.248 1036.014 390.248 1036.014 813.991 863.87 813.991 863.87 655.708 784.418 655.708 784.418 813.991 612.267 813.991 612.267 390.248 784.418 390.248 784.418 548.53 863.87 548.53" fill="none"/>
    </clipPath>
    <clipPath id="ba85ef21-e72a-418b-a012-acf0176f4ae7">
      <rect x="-11320.604" y="-6221.596" width="13006.239" height="7316.009" fill="none"/>
    </clipPath>
    <clipPath id="b34111bd-2bcd-4648-bf05-a1861702bf89">
      <rect x="845.023" y="843.018" width="331.982" height="331.982" fill="none"/>
    </clipPath>
  </defs>
  <circle cx="600" cy="600" r="575" fill="#009ce2"/>
  <g>
    <polygon points="863.87 548.53 863.87 390.248 1036.014 390.248 1036.014 813.991 863.87 813.991 863.87 655.708 784.418 655.708 784.418 813.991 612.267 813.991 612.267 390.248 784.418 390.248 784.418 548.53 863.87 548.53" fill="#fff"/>
    <g clip-path="url(#f76cb9df-ba96-4fac-a84a-c0da3462f9e1)">
      <g>
        <rect x="-11320.604" y="-6221.596" width="13006.239" height="7316.009" fill="#fff"/>
        <g clip-path="url(#ba85ef21-e72a-418b-a012-acf0176f4ae7)">
          <rect x="578.397" y="356.378" width="491.486" height="491.483" fill="#fff"/>
        </g>
      </g>
    </g>
  </g>
  <path d="M343.254,368.724c-128.49,0-232.652,104.161-232.653,232.651S214.762,834.027,343.252,834.028,575.9,729.867,575.905,601.377v0c.309-128.181-103.351-232.342-231.532-232.651ZM299.631,762.293c0,1.938,0,2.908-.97,3.876a5.894,5.894,0,0,1-8.724,3.879A174.389,174.389,0,0,1,176.519,656.63c-29.081-92.09,21.328-190,113.418-219.08.97-.968,2.908-.968,3.878-.968,3.878.968,5.816,3.875,5.816,7.754v13.57c0,4.849-1.938,7.757-5.816,9.695-39.744,14.541-71.733,45.56-86.274,86.274C179.427,628.519,218.2,712.855,293.815,740c2.908,1.94,5.816,5.816,5.816,8.724Zm59.133-49.438c-.97,4.846-3.878,7.754-7.756,7.754H336.467c-4.846-.97-7.754-3.878-7.754-7.754V689.59c-31.99-4.849-47.5-22.3-51.376-46.531v-.97a6.625,6.625,0,0,1,6.46-6.786q.162,0,.324,0H300.6c2.908,0,5.816,1.94,6.784,5.816,2.908,14.541,11.632,25.206,36.838,25.206,18.416,0,31.989-10.663,31.989-26.174s-8.724-21.327-35.867-26.173c-40.715-4.848-60.1-17.449-60.1-49.438,0-24.235,18.417-43.622,47.5-47.5v-22.3c.97-4.848,3.878-7.756,7.756-7.756h14.54c4.846.97,7.754,3.878,7.754,7.756v23.265a48.429,48.429,0,0,1,43.622,39.744v.97a6.626,6.626,0,0,1-6.464,6.784c-.107,0-.215,0-.322,0H379.122a7.29,7.29,0,0,1-6.787-4.845c-4.846-14.541-14.541-20.358-31.989-20.358-19.388,0-29.082,8.723-29.082,22.3s5.816,21.327,34.9,25.206c40.713,4.846,61.071,16.479,61.071,50.406h0c0,26.173-19.387,46.53-48.469,51.379Zm37.806,58.163c-.97.967-2.908.967-3.878.967-3.878-.967-5.817-3.875-5.817-7.754v-13.57c0-4.849,1.939-7.757,5.817-9.695,39.744-14.541,71.733-45.56,86.274-86.274,28.113-74.644-10.662-158.98-86.274-186.121-2.908-1.94-5.817-5.816-5.817-9.7V445.3c0-1.94,0-2.908.971-3.878a5.893,5.893,0,0,1,8.724-3.878A175.813,175.813,0,0,1,509.988,551.937c29.081,92.09-21.328,190-113.418,219.081Z" fill="#fff"/>
  <path d="M343.254,807.348c113.756,0,205.973-92.217,205.973-205.973S457.01,395.4,343.254,395.4,137.281,487.619,137.281,601.375c-.274,113.482,91.5,205.7,204.982,205.973C342.593,807.349,342.924,807.349,343.254,807.348Z" fill="#2775ca"/>
  <path d="M403.136,636.839c0-32.664-19.6-43.863-58.8-48.529-28-3.734-33.6-11.2-33.6-24.266s9.333-21.465,28-21.465c16.8,0,26.133,5.6,30.8,19.6a7.019,7.019,0,0,0,6.534,4.665H391a6.379,6.379,0,0,0,6.534-6.22c0-.1,0-.207,0-.311v-.934a46.626,46.626,0,0,0-42-38.264v-22.4c0-3.734-2.8-6.534-7.465-7.468h-14c-3.734,0-6.534,2.8-7.468,7.468V520.18c-28,3.734-45.729,22.4-45.729,45.732,0,30.8,18.665,42.929,57.862,47.6,26.133,4.665,34.532,10.265,34.532,25.2s-13.067,25.2-30.8,25.2c-24.267,0-32.666-10.268-35.466-24.267-.932-3.732-3.732-5.6-6.531-5.6h-15.86a6.379,6.379,0,0,0-6.531,6.223c0,.1,0,.207,0,.311v.934c3.732,23.33,18.665,40.129,49.463,44.8v22.4c0,3.731,2.8,6.531,7.465,7.465h14c3.733,0,6.533-2.8,7.467-7.465V686.3c28-4.668,46.663-24.266,46.663-49.465Z" fill="#fff"/>
  <path d="M298.174,724.1c-66.941-24.029-101.27-98.694-76.381-164.778,12.874-36.045,41.195-63.507,76.381-76.381,3.434-1.715,5.149-4.29,5.149-8.582V462.344c0-3.433-1.715-6.008-5.149-6.865-.859,0-2.575,0-3.433.857-81.53,25.746-126.158,112.428-100.412,193.958A154.393,154.393,0,0,0,294.741,750.705a5.216,5.216,0,0,0,7.723-3.433c.859-.857.859-1.716.859-3.432V731.824C303.323,729.249,300.749,725.818,298.174,724.1Zm90.972-267.764a5.218,5.218,0,0,0-7.724,3.434c-.859.858-.859,1.715-.859,3.433v12.014c0,3.434,2.575,6.865,5.149,8.583,66.941,24.029,101.271,98.694,76.381,164.778-12.873,36.045-41.195,63.507-76.381,76.381-3.433,1.715-5.149,4.29-5.149,8.583v12.014c0,3.433,1.716,6.008,5.149,6.865.859,0,2.575,0,3.434-.857,81.53-25.746,126.158-112.428,100.411-193.958a155.653,155.653,0,0,0-100.411-101.27Z" fill="#fff"/>
  <g id="ee797de0-128b-49d3-8719-3b2e01d7d18f" data-name="f2cdcc03-7b94-4cbe-87ca-cbe090b32b4c">
    <g clip-path="url(#b34111bd-2bcd-4648-bf05-a1861702bf89)">
      <g clip-path="url(#b34111bd-2bcd-4648-bf05-a1861702bf89)">
        <g>
          <path d="M1011.014,843.018a165.993,165.993,0,1,1-165.993,165.993,165.994,165.994,0,0,1,165.993-165.993" fill="#e84142" fill-rule="evenodd"/>
          <path d="M1069.569,1013.322c5.751-9.933,15.031-9.933,20.781,0l35.812,62.868c5.752,9.933,1.046,18.037-10.456,18.037h-72.147c-11.371,0-16.077-8.1-10.456-18.037ZM1000.3,892.293c5.751-9.933,14.9-9.933,20.651,0l7.972,14.377,18.822,33.067a34.359,34.359,0,0,1,0,29.931l-63.13,109.4a33.188,33.188,0,0,1-25.878,15.159H906.323c-11.5,0-16.207-7.973-10.456-18.037Z" fill="#fff"/>
        </g>
      </g>
    </g>
  </g>
</svg>
