<svg width="294" height="294" viewBox="0 0 294 294" fill="none" xmlns="http://www.w3.org/2000/svg">
  <path
    d="M222.838 117.216C224.851 115.203 224.851 111.939 222.838 109.925C220.824 107.912 217.56 107.912 215.547 109.925C213.533 111.939 213.533 115.203 215.547 117.216C217.56 119.23 220.824 119.23 222.838 117.216Z"
    fill="#FFC800" />
  <path
    d="M211.372 99.2173C213.385 97.204 213.385 93.9397 211.372 91.9264C209.359 89.913 206.094 89.913 204.081 91.9264C202.068 93.9397 202.068 97.204 204.081 99.2173C206.094 101.231 209.359 101.231 211.372 99.2173Z"
    fill="#FFA700" />
  <path
    d="M196.107 85.3427C198.121 83.3294 198.121 80.0651 196.107 78.0518C194.094 76.0385 190.83 76.0385 188.816 78.0518C186.803 80.0651 186.803 83.3294 188.816 85.3427C190.83 87.3561 194.094 87.3561 196.107 85.3427Z"
    fill="#FF8500" />
  <path
    d="M178.055 75.9618C180.068 73.9484 180.068 70.6842 178.055 68.6708C176.041 66.6575 172.777 66.6575 170.764 68.6708C168.75 70.6842 168.75 73.9484 170.764 75.9618C172.777 77.9751 176.041 77.9751 178.055 75.9618Z"
    fill="#FF6400" />
  <path
    d="M158.216 71.4389C160.229 69.4256 160.229 66.1613 158.216 64.148C156.202 62.1347 152.938 62.1347 150.925 64.148C148.911 66.1613 148.911 69.4256 150.925 71.4389C152.938 73.4523 156.202 73.4523 158.216 71.4389Z"
    fill="#FF4300" />
  <path
    d="M137.599 72.146C139.613 70.1327 139.613 66.8684 137.599 64.8551C135.586 62.8417 132.322 62.8417 130.309 64.8551C128.295 66.8684 128.295 70.1327 130.309 72.146C132.322 74.1594 135.586 74.1594 137.599 72.146Z"
    fill="#FF2100" />
  <path
    d="M117.217 78.4527C119.23 76.4394 119.23 73.1751 117.217 71.1618C115.203 69.1484 111.939 69.1484 109.926 71.1618C107.912 73.1751 107.912 76.4394 109.926 78.4527C111.939 80.4661 115.203 80.4661 117.217 78.4527Z"
    fill="#FF0000" />
  <path
    d="M99.4318 99.4312C104.229 94.6341 104.229 86.8564 99.4318 82.0593C94.6347 77.2622 86.8571 77.2622 82.06 82.0593C77.2629 86.8564 77.2628 94.6341 82.06 99.4312C86.8571 104.228 94.6347 104.228 99.4318 99.4312Z"
    fill="#009CE2" />
</svg>