<svg width="170" height="130" viewBox="0 0 170 130" fill="none" xmlns="http://www.w3.org/2000/svg">
  <path
    d="M132.111 74.2226C145.428 74.2226 156.223 63.4276 156.223 50.1113C156.223 36.795 145.428 26 132.111 26C118.795 26 108 36.795 108 50.1113C108 63.4276 118.795 74.2226 132.111 74.2226Z"
    fill="#00498D" />
  <path
    d="M14.5 112C21.9559 112 28 105.956 28 98.5C28 91.0442 21.9559 85 14.5 85C7.04417 85 1 91.0442 1 98.5C1 105.956 7.04417 112 14.5 112Z"
    fill="#E7018C" />
  <path
    d="M163 37C166.866 37 170 33.866 170 30C170 26.134 166.866 23 163 23C159.134 23 156 26.134 156 30C156 33.866 159.134 37 163 37Z"
    fill="#E7018C" />
  <path
    d="M83.7507 69.4313C99.9717 63.5273 108.335 45.5916 102.431 29.3706C96.5273 13.1497 78.5916 4.78608 62.3706 10.69C46.1497 16.594 37.7861 34.5297 43.69 50.7507C49.594 66.9716 67.5298 75.3352 83.7507 69.4313Z"
    fill="#009CE2" />
  <path
    d="M85.498 32.5918L82.5354 24.4521L91.2595 21.2768L99.1908 43.0679L90.4667 46.2432L87.504 38.1034L83.4773 39.569L86.4399 47.7088L77.7155 50.8842L69.7842 29.0931L78.5086 25.9177L81.4712 34.0575L85.498 32.5918Z"
    fill="white" />
  <path
    d="M55.7014 33.146C53.3591 33.9985 51.3221 35.5265 49.8482 37.5367C48.3743 39.5469 47.5296 41.949 47.4208 44.4393C47.3121 46.9296 47.9443 49.3962 49.2375 51.5272C50.5306 53.6582 52.4266 55.3578 54.6858 56.4112C56.9449 57.4646 59.4657 57.8245 61.9293 57.4452C64.393 57.066 66.6888 55.9647 68.5266 54.2807C70.3643 52.5966 71.6614 50.4054 72.2538 47.9842C72.8462 45.5629 72.7073 43.0204 71.8547 40.6781C71.2918 39.1206 70.4268 37.6896 69.3094 36.4674C68.1919 35.2451 66.844 34.2556 65.3431 33.5557C63.8421 32.8559 62.2177 32.4594 60.5631 32.3891C58.9085 32.3187 57.2563 32.576 55.7014 33.146ZM60.7721 53.9867C60.808 54.0855 60.826 54.1348 60.7948 54.2023C60.8173 54.4174 60.6556 54.5878 60.4225 54.5612C57.336 54.6786 54.4417 53.3293 52.5495 50.89C49.363 46.7411 50.1158 40.8228 54.2626 37.6371C54.2939 37.5699 54.3927 37.5339 54.4419 37.516C54.6575 37.4933 54.8098 37.6055 54.8817 37.8032L55.1331 38.4938C55.2229 38.7406 55.1784 38.9245 55.0167 39.0952C53.2632 40.5717 52.2094 42.7432 52.2236 45.0851C52.1754 49.4058 55.7124 52.9802 60.063 52.9598C60.2469 53.0043 60.4668 53.1481 60.5207 53.2961L60.7721 53.9867ZM62.8665 50.3748C62.9067 50.6393 62.8125 50.8412 62.6153 50.913L61.8751 51.1824C61.6103 51.2231 61.4084 51.1289 61.3366 50.9316L60.9055 49.7473C59.1859 50.0937 58.0746 49.4923 57.429 48.3303L57.411 48.2807C57.3933 48.2355 57.3849 48.1871 57.3864 48.1385C57.388 48.09 57.3993 48.0422 57.4199 47.9982C57.4404 47.9541 57.4697 47.9147 57.5059 47.8823C57.5421 47.8499 57.5846 47.8252 57.6306 47.8097L58.4693 47.5045C58.6173 47.4506 58.8013 47.4955 58.9223 47.6749C59.3398 48.3612 59.9815 48.7425 61.2646 48.2755C62.2021 47.9343 62.6966 47.139 62.4094 46.3499C62.1222 45.5609 61.5699 45.4251 60.0985 45.6822C57.9375 46.1892 56.716 45.9075 56.1233 44.2791C55.6743 43.0455 56.2525 41.7173 57.6611 40.9812L57.248 39.8461C57.2074 39.5814 57.3015 39.3795 57.4991 39.3075L58.2393 39.0381C58.5039 38.998 58.7058 39.0921 58.7776 39.2894L59.2086 40.4737C59.7665 40.3221 60.3588 40.359 60.8935 40.5787C61.4282 40.7983 61.8753 41.1885 62.1655 41.6884L62.1835 41.738C62.2013 41.7833 62.2096 41.8316 62.2081 41.8802C62.2066 41.9288 62.1952 41.9765 62.1747 42.0206C62.1541 42.0646 62.1248 42.104 62.0886 42.1364C62.0524 42.1688 62.01 42.1935 61.9639 42.209L61.1745 42.4963C61.0982 42.5228 61.0157 42.5254 60.9379 42.5037C60.8601 42.4821 60.7907 42.4373 60.739 42.3753C60.2232 41.7252 59.6218 41.6088 58.7322 41.9326C57.7455 42.2917 57.4133 42.9151 57.6648 43.6061C57.9163 44.297 58.3564 44.5848 59.9083 44.2426C62.0692 43.7353 63.3223 43.9498 63.951 45.677C64.4359 47.0093 63.8264 48.4047 62.4355 49.1893L62.8665 50.3748ZM65.8685 52.6347C65.8369 52.702 65.7384 52.7378 65.6888 52.7559C65.4736 52.7784 65.321 52.6664 65.2492 52.4691L64.9977 51.7781C64.908 51.5316 64.9529 51.3476 65.1142 51.177C66.8681 49.7004 67.9218 47.5289 67.9073 45.1871C67.9555 40.8665 64.4185 37.292 60.0679 37.3125C59.8839 37.2675 59.6641 37.1242 59.5923 36.9269L59.3408 36.2359C59.3048 36.1371 59.2869 36.0879 59.3185 36.0206C59.2959 35.8051 59.4573 35.6348 59.6907 35.6614C62.7279 35.5618 65.6713 36.8937 67.5821 39.3832C70.7698 43.532 70.0178 49.4495 65.869 52.6361L65.8685 52.6347Z"
    fill="white" />
  <path
    d="M63.8619 55.5687C65.9544 54.8072 67.7741 53.4422 69.0908 51.6465C70.4076 49.8507 71.1623 47.7049 71.2595 45.4802C71.3567 43.2556 70.792 41.052 69.6368 39.1483C68.4817 37.2446 66.7879 35.7262 64.7698 34.7851C62.7517 33.844 60.4998 33.5224 58.2989 33.8611C56.0981 34.1999 54.0471 35.1836 52.4053 36.688C50.7636 38.1924 49.6048 40.1498 49.0755 42.3128C48.5462 44.4757 48.6702 46.7471 49.4318 48.8395C49.9344 50.231 50.707 51.5095 51.7052 52.6016C52.7034 53.6936 53.9075 54.5776 55.2484 55.2029C56.5893 55.8282 58.0405 56.1824 59.5186 56.2452C60.9968 56.3079 62.4728 56.078 63.8619 55.5687Z"
    fill="#2775CA" />
  <path
    d="M63.6776 45.7294C63.0763 44.0773 61.8811 43.8723 59.816 44.357C58.3328 44.6831 57.9136 44.4084 57.6732 43.7479C57.4328 43.0874 57.7498 42.4913 58.6928 42.148C59.5408 41.8394 60.115 41.9508 60.6083 42.5727C60.6574 42.6322 60.7236 42.6753 60.798 42.696C60.8723 42.7168 60.9511 42.7142 61.0239 42.6887L61.778 42.4142C61.822 42.3995 61.8625 42.3759 61.8972 42.345C61.9318 42.314 61.9597 42.2764 61.9793 42.2343C61.9989 42.1922 62.0098 42.1465 62.0112 42.1001C62.0126 42.0536 62.0046 42.0074 61.9876 41.9641L61.9704 41.9169C61.693 41.4387 61.2656 41.0654 60.7546 40.8553C60.2435 40.6452 59.6775 40.61 59.1447 40.7552L58.7325 39.6227C58.6639 39.4342 58.4709 39.3441 58.2183 39.3825L57.511 39.64C57.3224 39.7086 57.2329 39.9016 57.2715 40.1544L57.6664 41.2394C56.3206 41.9431 55.7696 43.2124 56.1989 44.3918C56.7654 45.9485 57.9317 46.2186 59.9961 45.7341C61.4012 45.4899 61.9285 45.6184 62.2033 46.3733C62.4781 47.1282 62.0072 47.8872 61.1116 48.2132C59.8864 48.6591 59.2725 48.2949 58.8745 47.6383C58.7589 47.4666 58.5831 47.4236 58.4417 47.4751L57.6404 47.7667C57.5965 47.7816 57.556 47.8052 57.5214 47.8362C57.4868 47.8672 57.4589 47.9049 57.4393 47.947C57.4197 47.9891 57.4089 48.0348 57.4075 48.0812C57.406 48.1277 57.414 48.1739 57.431 48.2172L57.4482 48.2644C58.066 49.3759 59.1295 49.9496 60.77 49.6197L61.1821 50.7519C61.2508 50.9407 61.4433 51.0307 61.6963 50.9921L62.4035 50.7346C62.5918 50.6661 62.6818 50.4734 62.6431 50.2202L62.231 49.088C63.5596 48.3371 64.1421 47.0033 63.6784 45.7295L63.6776 45.7294Z"
    fill="white" />
  <path
    d="M59.9139 52.1521C56.0559 52.1677 52.9175 48.9899 52.9587 45.1563C52.9455 43.0782 53.8782 41.1492 55.4324 39.8391C55.5755 39.6875 55.615 39.5242 55.5353 39.3052L55.3121 38.6921C55.2483 38.5167 55.1132 38.4174 54.922 38.4368C54.8785 38.4527 54.7908 38.4846 54.7632 38.5444C51.0861 41.3716 50.4222 46.6257 53.2498 50.3111C54.0688 51.375 55.1306 52.2267 56.3459 52.7948C57.5613 53.3629 58.8947 53.6307 60.2342 53.5757C60.4408 53.5996 60.584 53.4483 60.564 53.257C60.5917 53.1975 60.5757 53.1536 60.5438 53.0661L60.3207 52.453C60.2711 52.3198 60.0778 52.1939 59.9139 52.1521ZM59.5745 36.7916C59.3676 36.7678 59.2244 36.9191 59.2447 37.1103C59.2167 37.1699 59.2327 37.2138 59.2646 37.3014L59.4877 37.9145C59.5514 38.0895 59.7465 38.2172 59.9096 38.2569C63.768 38.2412 66.9063 41.419 66.8648 45.2527C66.878 47.3308 65.9453 49.2598 64.3911 50.5699C64.2479 50.7212 64.2084 50.8845 64.2882 51.1038L64.5114 51.7169C64.5752 51.8923 64.7103 51.9916 64.9014 51.9718C64.9453 51.9559 65.0326 51.9241 65.0606 51.8645C68.7377 49.0373 69.4016 43.7832 66.5739 40.0974C65.7541 39.0276 64.691 38.1693 63.4734 37.5938C62.2557 37.0184 60.9187 36.7426 59.5737 36.7893L59.5745 36.7916Z"
    fill="white" />
  <path d="M105.646 47.2465L96.2988 50.6487L99.3911 59.1446L108.739 55.7423L105.646 47.2465Z" fill="white" />
  <path fill-rule="evenodd" clip-rule="evenodd"
    d="M110.353 51.1651C111.872 55.3403 109.717 59.9575 105.539 61.4782C101.362 62.9988 96.7428 60.8469 95.2232 56.6718C93.7036 52.4967 95.8585 47.8794 100.036 46.3588C104.214 44.8382 108.833 46.99 110.353 51.1651ZM101.739 57.7071L100.271 58.2414C99.9626 58.3537 99.8103 58.4091 99.6957 58.3836C99.5717 58.3551 99.4712 58.2697 99.4205 58.1535C99.375 58.046 99.4025 57.8845 99.4576 57.5616L100.758 49.8571C100.814 49.5298 100.843 49.3659 100.923 49.2799C101.009 49.1875 101.136 49.1415 101.261 49.1568C101.378 49.1711 101.505 49.2782 101.758 49.4932L102.977 50.522L102.983 50.5272C103.255 50.7575 103.394 50.8742 103.487 51.0156C103.589 51.1697 103.654 51.348 103.675 51.5319C103.694 51.7014 103.665 51.8804 103.603 52.2373L102.923 56.2939L102.921 56.3043C102.861 56.6587 102.83 56.8382 102.753 56.9932C102.669 57.1625 102.547 57.3077 102.396 57.4195C102.258 57.5184 102.085 57.5813 101.739 57.7071ZM105.447 56.3577L107.55 55.592C107.861 55.4791 108.017 55.4222 108.087 55.3272C108.164 55.2256 108.187 55.093 108.15 54.9722C108.117 54.8643 107.995 54.7629 107.757 54.5641C107.749 54.5574 107.741 54.5505 107.733 54.5435L106.023 53.1256L106.004 53.1097C105.765 52.9134 105.644 52.8142 105.53 52.8003C105.405 52.785 105.28 52.8303 105.194 52.9227C105.116 53.008 105.086 53.1683 105.028 53.49L104.634 55.6736L104.632 55.6811C104.575 56.0022 104.547 56.1626 104.592 56.2693C104.642 56.3855 104.744 56.4727 104.868 56.5012C104.98 56.5274 105.136 56.4706 105.447 56.3577Z"
    fill="#E84142" />
  <path
    d="M7.62818 65.8101C11.8411 65.8101 15.2564 62.3934 15.2564 58.1787C15.2564 53.964 11.8411 50.5473 7.62818 50.5473C3.41525 50.5473 0 53.964 0 58.1787C0 62.3934 3.41525 65.8101 7.62818 65.8101Z"
    fill="#FFC3A8" />
  <path opacity="0.2"
    d="M14.4725 61.5497L0.153533 56.6426C0.0534996 57.1486 0.00208754 57.6629 1.61758e-07 58.1786C-0.000354466 59.902 0.582398 61.5748 1.6534 62.9247C2.72439 64.2745 4.22057 65.222 5.89837 65.6128C7.57617 66.0036 9.3368 65.8147 10.8937 65.077C12.4505 64.3392 13.7119 63.096 14.4725 61.5497Z"
    fill="#FF7063" />
  <path
    d="M145 82.245C144.995 84.2248 144.207 86.1223 142.808 87.5222C141.409 88.9221 139.512 89.7105 137.533 89.7147H131.877C127.772 89.7147 129.388 86.3598 129.388 82.245V63.9911C129.388 59.8844 130.261 56.5214 134.366 56.5214H137.517C139.495 56.5278 141.391 57.3169 142.79 58.7163C144.188 60.1158 144.977 62.012 144.984 63.9911L145 82.245Z"
    fill="#FFC3A8" />
  <g style="mix-blend-mode:overlay" opacity="0.5">
    <path
      d="M129.404 63.9911V66.9742H145V63.9911C144.999 63.0639 144.824 62.1451 144.483 61.283H129.582C129.455 62.1799 129.395 63.0852 129.404 63.9911Z"
      fill="#FFFCFF" />
  </g>
  <path opacity="0.2"
    d="M129.404 72.2126V82.245C129.404 86.3598 127.788 89.7147 131.893 89.7147H137.55C139.526 89.7062 141.418 88.916 142.814 87.5165C144.21 86.117 144.996 84.222 145 82.245V72.2126H129.404Z"
    fill="#FF7063" />
  <path
    d="M88.6528 19.5447H56.8795C44.0496 19.5831 31.7562 24.6989 22.6841 33.7749C13.612 42.8508 8.49833 55.1494 8.45996 67.9847V69.2539C8.47138 76.8238 10.2558 84.2857 13.67 91.0412C17.0842 97.7967 22.0333 103.658 28.1203 108.155L26.5042 119.359C26.2848 120.587 26.342 121.848 26.6716 123.051C27.0011 124.253 27.5947 125.367 28.4092 126.311C29.2236 127.255 30.2383 128.006 31.3794 128.508C32.5204 129.01 33.7591 129.251 35.005 129.214H36.8313C39.574 129.137 42.2059 128.114 44.2809 126.318C46.3559 124.522 47.7465 122.063 48.217 119.359L48.5644 116.934C51.3105 117.411 54.0923 117.652 56.8795 117.653H88.6528C89.1215 117.653 89.5982 117.653 90.0669 117.653L90.3093 119.343C90.7813 122.047 92.1723 124.504 94.247 126.3C96.3217 128.096 98.9527 129.119 101.695 129.197H103.521C104.769 129.237 106.01 128.998 107.153 128.497C108.296 127.996 109.313 127.246 110.13 126.302C110.947 125.358 111.543 124.243 111.874 123.039C112.206 121.835 112.265 120.572 112.046 119.343L110.996 112.172C118.841 108.073 125.417 101.906 130.013 94.3393C134.609 86.7721 137.05 78.0922 137.072 69.2377V67.9847C137.036 55.1488 131.923 42.8489 122.851 33.7725C113.778 24.6961 101.483 19.581 88.6528 19.5447Z"
    fill="#FFC3A8" />
  <g style="mix-blend-mode:overlay" opacity="0.5">
    <g style="mix-blend-mode:overlay" opacity="0.5">
      <path
        d="M25.5672 51.0081C24.8394 51.0048 24.1276 50.7945 23.5147 50.4018C22.6726 49.8571 22.0811 49.0001 21.8705 48.0193C21.6599 47.0384 21.8473 46.014 22.3915 45.1714C26.3796 38.9415 31.8697 33.815 38.3567 30.2636C44.8438 26.7122 52.1194 24.8498 59.5142 24.848H86.0189C87.0219 24.848 87.9838 25.2466 88.693 25.9561C89.4022 26.6656 89.8007 27.6279 89.8007 28.6313C89.8007 29.6347 89.4022 30.597 88.693 31.3066C87.9838 32.0161 87.0219 32.4147 86.0189 32.4147H59.5142C53.3828 32.4171 47.3506 33.963 41.9731 36.9099C36.5957 39.8569 32.0459 44.1102 28.7429 49.2781C28.4001 49.8089 27.9299 50.2452 27.3751 50.5474C26.8204 50.8496 26.1988 51.008 25.5672 51.0081Z"
        fill="#FFFCFF" />
    </g>
  </g>
  <path
    d="M96.7907 24.8479C94.3665 23.506 94.6251 21.8245 97.2675 21.1212L119.085 15.3006C121.736 14.5973 123.295 16.1737 122.56 18.8172L118.932 31.8326C118.806 32.422 118.539 32.972 118.154 33.4352C117.768 33.8984 117.276 34.261 116.719 34.4917C116.163 34.7224 115.558 34.8142 114.959 34.7594C114.359 34.7046 113.781 34.5047 113.275 34.177L96.7907 24.8479Z"
    fill="#FFC3A8" />
  <path opacity="0.3"
    d="M137.032 68.5021V69.3105C137.032 88.4375 113.42 104.072 94.2931 104.072H51.5705C32.4515 104.072 8.83975 88.4132 8.83975 69.3105V68.5021H8.45996V69.3105C8.48021 76.8708 10.2688 84.3215 13.6827 91.0665C17.0965 97.8115 22.0409 103.664 28.1203 108.155L26.5042 119.359C26.2848 120.587 26.342 121.848 26.6716 123.051C27.0011 124.253 27.5947 125.367 28.4092 126.311C29.2236 127.255 30.2383 128.006 31.3794 128.508C32.5204 129.01 33.7591 129.251 35.005 129.214H36.8313C39.574 129.137 42.2059 128.114 44.2809 126.318C46.3559 124.522 47.7465 122.063 48.217 119.359L48.5644 116.934C51.3105 117.411 54.0923 117.652 56.8795 117.653H88.6528C89.1215 117.653 89.5982 117.653 90.0669 117.653L90.3093 119.343C90.7813 122.047 92.1723 124.504 94.247 126.3C96.3217 128.096 98.9527 129.119 101.695 129.198H103.521C104.769 129.237 106.01 128.998 107.153 128.497C108.296 127.996 109.313 127.246 110.13 126.302C110.947 125.358 111.543 124.243 111.874 123.039C112.206 121.835 112.265 120.572 112.046 119.343L110.996 112.172C118.841 108.073 125.417 101.906 130.013 94.3393C134.609 86.7722 137.05 78.0922 137.072 69.2377V68.5021H137.032Z"
    fill="#FF7063" />
  <path opacity="0.2"
    d="M121.485 15.3895L111.158 32.9886L113.292 34.1931C113.797 34.5209 114.375 34.7208 114.975 34.7756C115.575 34.8304 116.179 34.7385 116.735 34.5078C117.292 34.2772 117.784 33.9146 118.17 33.4514C118.555 32.9882 118.822 32.4382 118.948 31.8488L122.576 18.8334C123.061 17.1357 122.584 15.8827 121.485 15.3895Z"
    fill="#FF7063" />
  <path opacity="0.6"
    d="M122.891 54.1043C122.891 54.8289 122.677 55.5373 122.274 56.1397C121.871 56.7421 121.299 57.2115 120.63 57.4884C119.96 57.7653 119.224 57.8374 118.514 57.6954C117.803 57.5535 117.151 57.2039 116.64 56.6909C116.128 56.178 115.78 55.5247 115.64 54.8138C115.499 54.1029 115.573 53.3663 115.851 52.6973C116.13 52.0283 116.6 51.4569 117.203 51.0554C117.806 50.654 118.515 50.4406 119.239 50.4422C119.719 50.4422 120.195 50.537 120.639 50.7211C121.082 50.9053 121.485 51.1751 121.824 51.5153C122.164 51.8555 122.433 52.2592 122.616 52.7035C122.799 53.1478 122.892 53.6238 122.891 54.1043Z"
    fill="#9B625C" />
  <path
    d="M69.2653 84.1147C67.6356 84.1147 66.0058 83.4628 64.702 82.1589L51.6637 69.1207C49.0561 66.5131 49.0561 62.6016 51.6637 59.994C54.2714 57.3863 58.5088 57.3863 60.7905 59.994L69.2653 68.4688L90.7784 46.9557C93.3861 44.3481 97.2975 44.3481 99.9052 46.9557C102.513 49.5634 102.513 53.4748 99.9052 56.0825L73.8287 82.1589C72.5249 83.4628 70.8951 84.1147 69.2653 84.1147Z"
    fill="white" />
</svg>