<svg width="224" height="176" viewBox="0 0 224 176" fill="none" xmlns="http://www.w3.org/2000/svg">
  <path
    d="M186.111 120.223C199.428 120.223 210.223 109.428 210.223 96.1113C210.223 82.795 199.428 72 186.111 72C172.795 72 162 82.795 162 96.1113C162 109.428 172.795 120.223 186.111 120.223Z"
    fill="#00498D" />
  <path
    d="M68.5 158C75.9559 158 82 151.956 82 144.5C82 137.044 75.9559 131 68.5 131C61.0442 131 55 137.044 55 144.5C55 151.956 61.0442 158 68.5 158Z"
    fill="#E7018C" />
  <path
    d="M217 83C220.866 83 224 79.866 224 76C224 72.134 220.866 69 217 69C213.134 69 210 72.134 210 76C210 79.866 213.134 83 217 83Z"
    fill="#E7018C" />
  <path
    d="M137.751 115.431C153.972 109.527 162.335 91.5916 156.431 75.3707C150.527 59.1497 132.592 50.7861 116.371 56.6901C100.15 62.594 91.7861 80.5298 97.69 96.7507C103.594 112.972 121.53 121.335 137.751 115.431Z"
    fill="#009CE2" />
  <path
    d="M139.498 78.5918L136.535 70.4521L145.259 67.2768L153.191 89.0679L144.467 92.2432L141.504 84.1034L137.477 85.569L140.44 93.7088L131.715 96.8842L123.784 75.0931L132.509 71.9177L135.471 80.0575L139.498 78.5918Z"
    fill="white" />
  <path
    d="M109.701 79.146C107.359 79.9985 105.322 81.5265 103.848 83.5367C102.374 85.5469 101.53 87.949 101.421 90.4393C101.312 92.9296 101.944 95.3962 103.237 97.5272C104.531 99.6582 106.427 101.358 108.686 102.411C110.945 103.465 113.466 103.824 115.929 103.445C118.393 103.066 120.689 101.965 122.527 100.281C124.364 98.5966 125.661 96.4054 126.254 93.9842C126.846 91.5629 126.707 89.0204 125.855 86.6781C125.292 85.1206 124.427 83.6896 123.309 82.4674C122.192 81.2451 120.844 80.2556 119.343 79.5557C117.842 78.8559 116.218 78.4594 114.563 78.3891C112.909 78.3187 111.256 78.576 109.701 79.146ZM114.772 99.9867C114.808 100.086 114.826 100.135 114.795 100.202C114.817 100.417 114.656 100.588 114.422 100.561C111.336 100.679 108.442 99.3293 106.55 96.89C103.363 92.7411 104.116 86.8228 108.263 83.6371C108.294 83.5699 108.393 83.5339 108.442 83.516C108.657 83.4933 108.81 83.6055 108.882 83.8032L109.133 84.4938C109.223 84.7406 109.178 84.9245 109.017 85.0952C107.263 86.5717 106.209 88.7432 106.224 91.0851C106.175 95.4058 109.712 98.9802 114.063 98.9598C114.247 99.0043 114.467 99.1481 114.521 99.2961L114.772 99.9867ZM116.867 96.3748C116.907 96.6393 116.813 96.8412 116.615 96.913L115.875 97.1824C115.61 97.2231 115.408 97.1289 115.337 96.9316L114.906 95.7473C113.186 96.0937 112.075 95.4923 111.429 94.3303L111.411 94.2807C111.393 94.2355 111.385 94.1871 111.386 94.1385C111.388 94.09 111.399 94.0422 111.42 93.9982C111.44 93.9541 111.47 93.9147 111.506 93.8823C111.542 93.8499 111.585 93.8252 111.631 93.8097L112.469 93.5045C112.617 93.4506 112.801 93.4955 112.922 93.6749C113.34 94.3612 113.981 94.7425 115.265 94.2755C116.202 93.9343 116.697 93.139 116.409 92.3499C116.122 91.5609 115.57 91.4251 114.098 91.6822C111.937 92.1892 110.716 91.9075 110.123 90.2791C109.674 89.0455 110.253 87.7173 111.661 86.9812L111.248 85.8461C111.207 85.5814 111.302 85.3795 111.499 85.3075L112.239 85.0381C112.504 84.998 112.706 85.0921 112.778 85.2894L113.209 86.4737C113.766 86.3221 114.359 86.359 114.893 86.5787C115.428 86.7983 115.875 87.1885 116.165 87.6884L116.184 87.738C116.201 87.7833 116.21 87.8316 116.208 87.8802C116.207 87.9288 116.195 87.9765 116.175 88.0206C116.154 88.0646 116.125 88.104 116.089 88.1364C116.052 88.1688 116.01 88.1935 115.964 88.209L115.174 88.4963C115.098 88.5228 115.016 88.5254 114.938 88.5037C114.86 88.4821 114.791 88.4373 114.739 88.3753C114.223 87.7252 113.622 87.6088 112.732 87.9326C111.745 88.2917 111.413 88.9151 111.665 89.6061C111.916 90.297 112.356 90.5848 113.908 90.2426C116.069 89.7353 117.322 89.9498 117.951 91.677C118.436 93.0093 117.826 94.4047 116.435 95.1893L116.867 96.3748ZM119.869 98.6347C119.837 98.702 119.738 98.7378 119.689 98.7559C119.474 98.7784 119.321 98.6664 119.249 98.4691L118.998 97.7781C118.908 97.5316 118.953 97.3476 119.114 97.177C120.868 95.7004 121.922 93.5289 121.907 91.1871C121.955 86.8665 118.419 83.292 114.068 83.3125C113.884 83.2675 113.664 83.1242 113.592 82.9269L113.341 82.2359C113.305 82.1371 113.287 82.0879 113.319 82.0206C113.296 81.8051 113.457 81.6348 113.691 81.6614C116.728 81.5618 119.671 82.8937 121.582 85.3832C124.77 89.532 124.018 95.4495 119.869 98.6361L119.869 98.6347Z"
    fill="white" />
  <path
    d="M117.862 101.569C119.954 100.807 121.774 99.4423 123.091 97.6465C124.408 95.8508 125.162 93.7049 125.259 91.4803C125.357 89.2556 124.792 87.0521 123.637 85.1484C122.482 83.2447 120.788 81.7262 118.77 80.7851C116.752 79.844 114.5 79.5225 112.299 79.8612C110.098 80.1999 108.047 81.1837 106.405 82.688C104.764 84.1924 103.605 86.1499 103.075 88.3128C102.546 90.4758 102.67 92.7471 103.432 94.8396C103.934 96.2311 104.707 97.5096 105.705 98.6016C106.703 99.6937 107.908 100.578 109.248 101.203C110.589 101.828 112.04 102.182 113.519 102.245C114.997 102.308 116.473 102.078 117.862 101.569Z"
    fill="#2775CA" />
  <path
    d="M117.678 91.7294C117.076 90.0773 115.881 89.8723 113.816 90.357C112.333 90.6831 111.914 90.4084 111.673 89.7479C111.433 89.0874 111.75 88.4913 112.693 88.148C113.541 87.8394 114.115 87.9508 114.608 88.5727C114.657 88.6322 114.724 88.6753 114.798 88.696C114.872 88.7168 114.951 88.7142 115.024 88.6887L115.778 88.4142C115.822 88.3995 115.863 88.3759 115.897 88.345C115.932 88.314 115.96 88.2764 115.979 88.2343C115.999 88.1922 116.01 88.1465 116.011 88.1001C116.013 88.0536 116.005 88.0074 115.988 87.9641L115.97 87.9169C115.693 87.4387 115.266 87.0654 114.755 86.8553C114.244 86.6452 113.678 86.61 113.145 86.7552L112.732 85.6227C112.664 85.4342 112.471 85.3441 112.218 85.3825L111.511 85.64C111.322 85.7086 111.233 85.9016 111.271 86.1544L111.666 87.2394C110.321 87.9431 109.77 89.2124 110.199 90.3918C110.765 91.9485 111.932 92.2186 113.996 91.7341C115.401 91.4899 115.929 91.6184 116.203 92.3733C116.478 93.1282 116.007 93.8872 115.112 94.2132C113.886 94.6591 113.272 94.2949 112.874 93.6383C112.759 93.4666 112.583 93.4236 112.442 93.4751L111.64 93.7667C111.596 93.7816 111.556 93.8052 111.521 93.8362C111.487 93.8672 111.459 93.9049 111.439 93.947C111.42 93.9891 111.409 94.0348 111.407 94.0812C111.406 94.1277 111.414 94.1739 111.431 94.2172L111.448 94.2644C112.066 95.3759 113.129 95.9496 114.77 95.6197L115.182 96.7519C115.251 96.9407 115.443 97.0307 115.696 96.9921L116.404 96.7346C116.592 96.6661 116.682 96.4734 116.643 96.2202L116.231 95.088C117.56 94.3371 118.142 93.0033 117.678 91.7295L117.678 91.7294Z"
    fill="white" />
  <path
    d="M113.914 98.1521C110.056 98.1677 106.918 94.9899 106.959 91.1563C106.945 89.0782 107.878 87.1492 109.432 85.8391C109.575 85.6875 109.615 85.5242 109.535 85.3052L109.312 84.6921C109.248 84.5167 109.113 84.4174 108.922 84.4368C108.878 84.4527 108.791 84.4846 108.763 84.5444C105.086 87.3716 104.422 92.6257 107.25 96.3111C108.069 97.375 109.131 98.2267 110.346 98.7948C111.561 99.3629 112.895 99.6307 114.234 99.5757C114.441 99.5996 114.584 99.4483 114.564 99.257C114.592 99.1975 114.576 99.1536 114.544 99.0661L114.321 98.453C114.271 98.3198 114.078 98.1939 113.914 98.1521ZM113.575 82.7916C113.368 82.7678 113.224 82.9191 113.245 83.1103C113.217 83.1699 113.233 83.2138 113.265 83.3014L113.488 83.9145C113.551 84.0895 113.746 84.2172 113.91 84.2569C117.768 84.2412 120.906 87.419 120.865 91.2527C120.878 93.3308 119.945 95.2598 118.391 96.5699C118.248 96.7212 118.208 96.8845 118.288 97.1038L118.511 97.7169C118.575 97.8923 118.71 97.9916 118.901 97.9718C118.945 97.9559 119.033 97.9241 119.061 97.8645C122.738 95.0373 123.402 89.7832 120.574 86.0974C119.754 85.0276 118.691 84.1693 117.473 83.5938C116.256 83.0184 114.919 82.7426 113.574 82.7893L113.575 82.7916Z"
    fill="white" />
  <path d="M159.646 93.2466L150.299 96.6488L153.391 105.145L162.739 101.742L159.646 93.2466Z" fill="white" />
  <path fill-rule="evenodd" clip-rule="evenodd"
    d="M164.353 97.1652C165.872 101.34 163.717 105.958 159.539 107.478C155.362 108.999 150.743 106.847 149.223 102.672C147.704 98.4968 149.859 93.8795 154.036 92.3589C158.214 90.8382 162.833 92.9901 164.353 97.1652ZM155.739 103.707L154.271 104.241C153.963 104.354 153.81 104.409 153.696 104.384C153.572 104.355 153.471 104.27 153.42 104.154C153.375 104.046 153.403 103.885 153.458 103.562L154.758 95.8572C154.814 95.5299 154.843 95.3659 154.923 95.2799C155.009 95.1875 155.136 95.1415 155.261 95.1568C155.378 95.1711 155.505 95.2783 155.758 95.4933L156.977 96.522L156.983 96.5273C157.255 96.7575 157.394 96.8743 157.487 97.0157C157.589 97.1698 157.654 97.3481 157.675 97.532C157.694 97.7015 157.665 97.8805 157.603 98.2373L156.923 102.294L156.921 102.304C156.861 102.659 156.83 102.838 156.753 102.993C156.669 103.163 156.547 103.308 156.396 103.42C156.258 103.518 156.085 103.581 155.739 103.707ZM159.447 102.358L161.55 101.592C161.861 101.479 162.017 101.422 162.087 101.327C162.164 101.226 162.187 101.093 162.15 100.972C162.117 100.864 161.995 100.763 161.757 100.564C161.749 100.557 161.741 100.551 161.733 100.544L160.023 99.1257L160.004 99.1097C159.765 98.9134 159.644 98.8143 159.53 98.8004C159.405 98.785 159.28 98.8304 159.194 98.9228C159.116 99.0081 159.086 99.1683 159.028 99.4901L158.634 101.674L158.632 101.681C158.575 102.002 158.547 102.163 158.592 102.269C158.642 102.386 158.744 102.473 158.868 102.501C158.98 102.527 159.136 102.471 159.447 102.358Z"
    fill="#E84142" />
  <path
    d="M61.6282 111.81C65.8411 111.81 69.2564 108.393 69.2564 104.179C69.2564 99.9641 65.8411 96.5474 61.6282 96.5474C57.4153 96.5474 54 99.9641 54 104.179C54 108.393 57.4153 111.81 61.6282 111.81Z"
    fill="#FFC3A8" />
  <path opacity="0.2"
    d="M68.4725 107.55L54.1535 102.643C54.0535 103.149 54.0021 103.663 54 104.179C53.9996 105.902 54.5824 107.575 55.6534 108.925C56.7244 110.275 58.2206 111.222 59.8984 111.613C61.5762 112.004 63.3368 111.815 64.8937 111.077C66.4505 110.339 67.7119 109.096 68.4725 107.55Z"
    fill="#FF7063" />
  <path
    d="M199 128.245C198.995 130.225 198.207 132.122 196.808 133.522C195.409 134.922 193.512 135.711 191.533 135.715H185.877C181.772 135.715 183.388 132.36 183.388 128.245V109.991C183.388 105.884 184.261 102.521 188.366 102.521H191.517C193.495 102.528 195.391 103.317 196.79 104.716C198.188 106.116 198.977 108.012 198.984 109.991L199 128.245Z"
    fill="#FFC3A8" />
  <g style="mix-blend-mode:overlay" opacity="0.5">
    <path
      d="M183.404 109.991V112.974H199V109.991C198.999 109.064 198.824 108.145 198.483 107.283H183.582C183.455 108.18 183.395 109.085 183.404 109.991Z"
      fill="#FFFCFF" />
  </g>
  <path opacity="0.2"
    d="M183.404 118.213V128.245C183.404 132.36 181.788 135.715 185.893 135.715H191.55C193.526 135.706 195.418 134.916 196.814 133.517C198.21 132.117 198.996 130.222 199 128.245V118.213H183.404Z"
    fill="#FF7063" />
  <path
    d="M142.653 65.5448H110.879C98.0496 65.5832 85.7562 70.699 76.6841 79.7749C67.612 88.8509 62.4983 101.149 62.46 113.985V115.254C62.4714 122.824 64.2558 130.286 67.67 137.041C71.0842 143.797 76.0333 149.658 82.1203 154.155L80.5042 165.359C80.2848 166.587 80.342 167.848 80.6716 169.051C81.0011 170.253 81.5947 171.367 82.4092 172.311C83.2236 173.256 84.2383 174.006 85.3794 174.508C86.5204 175.01 87.7591 175.251 89.005 175.214H90.8313C93.574 175.137 96.2059 174.114 98.2809 172.318C100.356 170.522 101.746 168.063 102.217 165.359L102.564 162.934C105.31 163.411 108.092 163.652 110.879 163.653H142.653C143.121 163.653 143.598 163.653 144.067 163.653L144.309 165.343C144.781 168.047 146.172 170.504 148.247 172.3C150.322 174.096 152.953 175.119 155.695 175.198H157.521C158.769 175.237 160.01 174.998 161.153 174.497C162.296 173.996 163.313 173.246 164.13 172.302C164.947 171.358 165.543 170.243 165.874 169.039C166.206 167.835 166.265 166.572 166.046 165.343L164.996 158.172C172.841 154.073 179.417 147.907 184.013 140.339C188.609 132.772 191.05 124.092 191.072 115.238V113.985C191.036 101.149 185.923 88.849 176.851 79.7726C167.778 70.6962 155.483 65.5811 142.653 65.5448Z"
    fill="#FFC3A8" />
  <g style="mix-blend-mode:overlay" opacity="0.5">
    <g style="mix-blend-mode:overlay" opacity="0.5">
      <path
        d="M79.5672 97.0082C78.8394 97.0048 78.1276 96.7946 77.5147 96.4019C76.6726 95.8572 76.0811 95.0002 75.8705 94.0193C75.6599 93.0385 75.8473 92.0141 76.3915 91.1715C80.3796 84.9416 85.8697 79.8151 92.3567 76.2637C98.8438 72.7122 106.119 70.8499 113.514 70.848H140.019C141.022 70.848 141.984 71.2466 142.693 71.9561C143.402 72.6657 143.801 73.628 143.801 74.6314C143.801 75.6348 143.402 76.5971 142.693 77.3066C141.984 78.0161 141.022 78.4147 140.019 78.4147H113.514C107.383 78.4172 101.351 79.963 95.9731 82.91C90.5957 85.857 86.0459 90.1103 82.7429 95.2782C82.4001 95.8089 81.9299 96.2453 81.3751 96.5475C80.8204 96.8497 80.1988 97.0081 79.5672 97.0082Z"
        fill="#FFFCFF" />
    </g>
  </g>
  <path
    d="M150.791 70.848C148.367 69.506 148.625 67.8245 151.267 67.1212L173.085 61.3007C175.736 60.5973 177.295 62.1737 176.56 64.8172L172.932 77.8326C172.806 78.4221 172.539 78.9721 172.154 79.4353C171.768 79.8985 171.276 80.2611 170.719 80.4917C170.163 80.7224 169.558 80.8143 168.959 80.7595C168.359 80.7047 167.781 80.5048 167.275 80.177L150.791 70.848Z"
    fill="#FFC3A8" />
  <path opacity="0.3"
    d="M191.032 114.502V115.311C191.032 134.438 167.42 150.072 148.293 150.072H105.57C86.4515 150.072 62.8398 134.413 62.8398 115.311V114.502H62.46V115.311C62.4802 122.871 64.2688 130.322 67.6827 137.067C71.0965 143.812 76.0409 149.664 82.1203 154.155L80.5042 165.359C80.2848 166.587 80.342 167.848 80.6716 169.051C81.0011 170.253 81.5947 171.367 82.4092 172.312C83.2236 173.256 84.2383 174.006 85.3794 174.508C86.5204 175.01 87.7591 175.251 89.005 175.214H90.8313C93.574 175.137 96.2059 174.114 98.2809 172.318C100.356 170.522 101.746 168.064 102.217 165.359L102.564 162.934C105.31 163.411 108.092 163.652 110.879 163.654H142.653C143.121 163.654 143.598 163.654 144.067 163.654L144.309 165.343C144.781 168.047 146.172 170.504 148.247 172.3C150.322 174.096 152.953 175.119 155.695 175.198H157.521C158.769 175.237 160.01 174.998 161.153 174.497C162.296 173.996 163.313 173.246 164.13 172.302C164.947 171.358 165.543 170.243 165.874 169.039C166.206 167.835 166.265 166.573 166.046 165.343L164.996 158.173C172.841 154.073 179.417 147.907 184.013 140.339C188.609 132.772 191.05 124.092 191.072 115.238V114.502H191.032Z"
    fill="#FF7063" />
  <path opacity="0.2"
    d="M175.485 61.3896L165.158 78.9887L167.292 80.1933C167.797 80.521 168.375 80.7209 168.975 80.7757C169.575 80.8305 170.179 80.7386 170.735 80.508C171.292 80.2773 171.784 79.9147 172.17 79.4515C172.555 78.9883 172.822 78.4383 172.948 77.8489L176.576 64.8335C177.061 63.1358 176.584 61.8828 175.485 61.3896Z"
    fill="#FF7063" />
  <path opacity="0.6"
    d="M176.891 100.104C176.891 100.829 176.677 101.537 176.274 102.14C175.871 102.742 175.299 103.212 174.63 103.488C173.96 103.765 173.224 103.837 172.514 103.695C171.803 103.554 171.151 103.204 170.64 102.691C170.128 102.178 169.78 101.525 169.64 100.814C169.499 100.103 169.573 99.3664 169.851 98.6973C170.13 98.0283 170.6 97.4569 171.203 97.0555C171.806 96.6541 172.515 96.4407 173.239 96.4423C173.719 96.4423 174.195 96.5371 174.639 96.7212C175.082 96.9053 175.485 97.1752 175.824 97.5154C176.164 97.8555 176.433 98.2593 176.616 98.7036C176.799 99.1478 176.892 99.6238 176.891 100.104Z"
    fill="#9B625C" />
  <path
    d="M123.265 130.115C121.636 130.115 120.006 129.463 118.702 128.159L105.664 115.121C103.056 112.513 103.056 108.602 105.664 105.994C108.271 103.386 112.509 103.386 114.791 105.994L123.265 114.469L144.778 92.9557C147.386 90.3481 151.298 90.3481 153.905 92.9557C156.513 95.5634 156.513 99.4748 153.905 102.082L127.829 128.159C126.525 129.463 124.895 130.115 123.265 130.115Z"
    fill="white" />
  <path
    d="M97.389 36.6268L87.6392 46.3766C86.8822 47.1337 86.8822 48.3648 87.6354 49.118L92.9232 54.4059C93.6802 55.1629 94.9076 55.1591 95.6646 54.402L105.414 44.6522C106.168 43.899 106.171 42.6717 105.414 41.9147L100.127 36.6268C99.3734 35.8736 98.146 35.8698 97.389 36.6268Z"
    fill="#BAC2D6" />
  <g opacity="0.3">
    <path opacity="0.3"
      d="M89.8066 44.2087L87.6425 46.3728C86.8855 47.1298 86.8855 48.361 87.6387 49.1142L92.9265 54.402C93.6836 55.1591 94.9109 55.1552 95.668 54.3982L97.832 52.2341C97.075 52.9912 95.8515 52.9912 95.0944 52.2341L89.8066 46.9463C89.0496 46.1969 89.0496 44.9658 89.8066 44.2087Z"
      fill="#371A45" />
  </g>
  <g opacity="0.55">
    <path opacity="0.55"
      d="M97.389 36.6268L95.8596 38.1562C96.6128 37.403 97.844 37.403 98.5972 38.1562L103.885 43.444C104.642 44.2011 104.638 45.4284 103.885 46.1816L105.414 44.6522C106.168 43.899 106.171 42.6717 105.414 41.9147L100.127 36.6268C99.3734 35.8736 98.146 35.8698 97.389 36.6268Z"
      fill="white" />
  </g>
  <path d="M82.9938 39.2154L88.8972 45.1188L95.8291 38.1869L90.8204 33.1782L82.9938 39.2154Z" fill="#BAC2D6" />
  <path
    d="M56.2559 10.4285C55.3459 11.499 56.0265 13.1508 57.4259 13.2578C65.2754 13.8504 69.4659 22.132 65.5584 28.5784C64.9046 29.6527 65.0537 31.0254 65.9445 31.9162L75.8129 41.7845C76.7726 42.7442 78.2981 42.8398 79.3725 42.0101L82.9933 39.2152L90.8161 33.1818L93.4542 31.1477C94.7466 30.1536 94.8651 28.2457 93.7142 27.0949L77.5334 10.914C70.9762 4.34918 61.1576 4.6474 56.2559 10.4285Z"
    fill="#BAC2D6" />
  <g opacity="0.3">
    <path opacity="0.3"
      d="M56.2555 10.4283C55.3455 11.4989 56.0261 13.1506 57.4254 13.2576C65.275 13.8503 69.4655 22.1319 65.5579 28.5782C64.9041 29.6526 65.0532 31.0252 65.9441 31.9161L75.8124 41.7844C76.7721 42.7441 78.2976 42.8397 79.372 42.01L80.2399 41.3409C79.8652 41.2109 79.5173 40.9929 79.2229 40.6985L69.3546 30.8302C68.4675 29.9432 68.3223 28.5667 68.9722 27.4962C72.8798 21.0498 68.6893 12.7682 60.8398 12.1756C59.4366 12.0724 58.7636 10.4206 59.6698 9.34626C60.7939 8.02335 62.1703 6.98337 63.7074 6.25691C60.8015 6.76925 58.1557 8.18393 56.2555 10.4283Z"
      fill="#371A45" />
  </g>
  <g opacity="0.55">
    <path opacity="0.55"
      d="M65.2067 6.07322C68.5905 6.46704 72.0277 8.01553 74.8571 10.8449L91.0379 27.0257C92.1888 28.1766 92.0664 30.0806 90.7779 31.0786L88.1397 33.1126L80.317 39.146L76.6962 41.941C76.5776 42.0289 76.4553 42.113 76.3291 42.178C77.2659 42.7477 78.4779 42.698 79.3764 42.006L82.9972 39.211L90.82 33.1776L93.4582 31.1436C94.7505 30.1495 94.869 28.2416 93.7182 27.0907L77.5373 10.9099C73.9548 7.32732 69.4049 5.79029 65.2067 6.07322Z"
      fill="white" />
  </g>
  <path d="M66.1166 32.0884L75.1973 41.1691L52.0195 64.3468L42.9388 55.2661L66.1166 32.0884Z" fill="#F9B46F" />
  <g opacity="0.2">
    <g opacity="0.2">
      <path opacity="0.2"
        d="M70.9722 45.2101C70.7046 44.9578 70.3758 44.8201 70.0431 44.7246C69.7067 44.6251 69.3587 44.5754 69.007 44.5525C68.3111 44.499 67.5999 44.5143 66.9041 44.6443C65.5162 44.9004 64.2697 45.5122 62.9774 45.6651C62.335 45.7492 61.6965 45.6919 61.0771 45.5084C60.4616 45.321 59.8766 45.0266 59.3298 44.671C58.7792 44.3116 58.2593 43.9063 57.7469 43.4781C57.4869 43.264 57.2346 43.0499 56.9899 42.8128C56.7375 42.5911 56.4584 42.3808 56.0799 42.3234C56.0264 42.3158 55.9728 42.354 55.9614 42.4037C55.9575 42.4228 55.9614 42.442 55.969 42.4572L55.9728 42.4611C56.1143 42.8243 56.3666 43.0308 56.619 43.2525C56.8866 43.4513 57.1428 43.6769 57.4028 43.891C57.9228 44.3269 58.4581 44.7475 59.0392 45.1222C59.6166 45.5007 60.2436 45.8142 60.9204 46.0245C61.5971 46.2272 62.3312 46.2883 63.0347 46.1966C64.4532 46.0169 65.7035 45.4013 66.992 45.1681C67.6343 45.0534 68.2958 45.019 68.942 45.0993C69.267 45.1413 69.5843 45.2063 69.9017 45.2637C70.2228 45.3248 70.544 45.386 70.9034 45.3784C70.9569 45.3784 70.999 45.3363 70.999 45.2828C71.0028 45.2484 70.9913 45.2292 70.9722 45.2101Z"
        fill="#371A45" />
    </g>
    <g opacity="0.2">
      <path opacity="0.2"
        d="M57.8805 40.5223C58.0984 41.2755 58.6566 41.8643 59.2684 42.3155C59.8839 42.7705 60.553 43.1719 61.2948 43.4014C61.6618 43.5314 62.0442 43.6002 62.4342 43.6537C62.8242 43.6843 63.2218 43.6996 63.6118 43.6308C64.4033 43.5352 65.1488 43.1643 65.7759 42.7361C66.4106 42.3079 66.9917 41.8337 67.6188 41.4896C67.9361 41.3176 68.2573 41.1876 68.5938 41.1111C68.7582 41.0614 68.9379 41.0499 69.1099 41.0232C69.282 41.0193 69.4579 40.9964 69.6299 41.0155C70.3296 41.0423 71.014 41.2602 71.6066 41.6235C71.9049 41.7993 72.1763 42.0249 72.3981 42.2849C72.6275 42.5449 72.8148 42.8087 73.1284 43.0458L73.136 43.0534C73.1551 43.0649 73.1704 43.0725 73.1934 43.0878L73.2087 43.0955C73.2507 43.1222 73.3119 43.1069 73.3425 43.0611C73.3501 43.0458 73.3539 43.0267 73.3539 43.0114C73.3539 42.9808 73.3501 42.954 73.3501 42.9234L73.3578 42.9311C73.3234 42.5143 73.0978 42.1664 72.8187 41.8873C72.5281 41.6196 72.2337 41.3635 71.8934 41.1608C71.2243 40.7594 70.4558 40.5108 69.6643 40.4764C68.8805 40.4267 68.0585 40.637 67.3741 41.0155C66.682 41.394 66.097 41.8796 65.4891 42.2887C64.8812 42.6978 64.2503 43.0152 63.5468 43.0993C63.2027 43.1605 62.8471 43.1414 62.4992 43.1222C62.1512 43.0725 61.8033 43.0152 61.4707 42.8967C60.8016 42.6787 60.1669 42.327 59.6201 41.8796C59.4787 41.7687 59.3601 41.6426 59.2225 41.5279C59.1001 41.3979 58.9663 41.287 58.844 41.157C58.5878 40.9161 58.3699 40.6294 58.0334 40.4229L58.0257 40.4152C57.9837 40.3885 57.9263 40.4 57.8958 40.4458C57.8805 40.4688 57.8766 40.4955 57.8805 40.5223Z"
        fill="#371A45" />
    </g>
    <g opacity="0.2">
      <path opacity="0.2"
        d="M60.5193 37.8767C60.5193 38.1597 60.6379 38.4005 60.7946 38.6108C60.8711 38.7179 60.959 38.8135 61.0508 38.9052C61.1464 38.9932 61.2496 39.0735 61.349 39.1499C61.7581 39.4596 62.2093 39.7196 62.6949 39.8917C63.6546 40.2396 64.7137 40.3046 65.7192 40.0943C66.7286 39.8802 67.6615 39.4061 68.4606 38.7676C68.8583 38.4464 69.2215 38.0908 69.5541 37.7047C69.7224 37.5135 69.8677 37.307 70.0359 37.1159C70.1965 36.9171 70.3341 36.7029 70.3532 36.4238L70.3456 36.4391C70.3456 36.3932 70.3532 36.3474 70.3456 36.3015C70.3341 36.2365 70.2768 36.1944 70.2118 36.2059C70.2079 36.2097 70.2041 36.2059 70.2003 36.2097L70.1927 36.2097C70.1506 36.2212 70.12 36.2365 70.0818 36.2518L70.0741 36.2671C69.8371 36.4047 69.7071 36.6035 69.5771 36.8023C69.4547 37.0088 69.298 37.1885 69.145 37.372C68.8353 37.7353 68.495 38.0679 68.1242 38.3623C67.3862 38.955 66.5221 39.3908 65.6122 39.582C64.7022 39.7732 63.7387 39.712 62.8784 39.4023C62.4502 39.2417 62.0411 39.0314 61.697 38.7332C61.5325 38.5764 61.372 38.4235 61.219 38.2629C61.0584 38.1023 60.9093 37.9379 60.6723 37.8003C60.6226 37.7735 60.5614 37.7888 60.5346 37.8385C60.5232 37.8347 60.5193 37.8538 60.5193 37.8767Z"
        fill="#371A45" />
    </g>
    <g opacity="0.2">
      <path opacity="0.2"
        d="M68.3575 34.5503C68.1817 34.6727 68.1014 34.8142 68.0364 34.9556C67.9676 35.1009 67.9217 35.2462 67.8681 35.3915C67.7611 35.6821 67.6005 35.9497 67.4208 36.1906C67.0614 36.6647 66.5299 37.0279 65.9717 37.1273C65.6926 37.1771 65.4097 37.1541 65.1497 37.0547C64.8897 36.9553 64.6564 36.7832 64.4576 36.5691C64.2588 36.355 64.0906 36.1027 63.9644 35.8312C63.8956 35.7012 63.8535 35.5444 63.8191 35.3953C63.7694 35.2462 63.7159 35.1086 63.475 35.013L63.4635 35.0092C63.4024 34.9862 63.3335 35.0092 63.3029 35.0627C63.1729 35.2768 63.2227 35.4412 63.28 35.598C63.3144 35.6783 63.3526 35.7547 63.3832 35.8312C63.41 35.9115 63.4406 35.988 63.4826 36.0683C63.6356 36.3818 63.8229 36.6762 64.0676 36.9362C64.3047 37.1962 64.6106 37.4179 64.9585 37.5518C65.3064 37.6856 65.6964 37.7238 66.0596 37.6512C66.7938 37.5212 67.417 37.0738 67.8528 36.5079C68.0708 36.2288 68.2314 35.9153 68.3843 35.6018C68.4608 35.4489 68.5334 35.2921 68.5717 35.1239C68.6137 34.9595 68.629 34.7836 68.5372 34.5924C68.5105 34.5351 68.4417 34.5121 68.3843 34.5389C68.3728 34.5427 68.3652 34.5503 68.3575 34.5503Z"
        fill="#371A45" />
    </g>
    <g opacity="0.2">
      <path opacity="0.2"
        d="M67.6574 48.548C67.3935 48.2077 66.9806 47.9936 66.5677 47.8942C66.1509 47.7833 65.7227 47.768 65.3021 47.791C64.461 47.8369 63.6504 48.0051 62.8666 48.1848C62.0828 48.3568 61.3028 48.5174 60.5343 48.5213C59.7658 48.5251 59.0202 48.3224 58.267 48.0739C57.5138 47.8254 56.7452 47.5386 55.9156 47.4048C55.0859 47.2863 54.2332 47.3207 53.4188 47.5004C52.6006 47.6686 51.8206 47.9439 51.0636 48.2574C50.6851 48.4142 50.3142 48.5786 49.9357 48.7277C49.5648 48.8921 49.1978 49.068 48.9072 49.4121C48.8728 49.4542 48.8728 49.5154 48.9148 49.5498C48.9301 49.5651 48.9531 49.5727 48.976 49.5727C49.4233 49.5765 49.7904 49.4159 50.1574 49.2477C50.5168 49.0642 50.8839 48.9036 51.2586 48.7507C51.9965 48.4486 52.7497 48.1848 53.5144 48.0242C54.2791 47.856 55.0591 47.8254 55.82 47.9363C56.5808 48.0548 57.3226 48.3301 58.0873 48.5824C58.8481 48.8386 59.6702 49.0642 60.5228 49.0604C61.3678 49.0565 62.1822 48.8845 62.9736 48.7124C63.7651 48.5404 64.5374 48.3568 65.3098 48.3492C65.6959 48.3454 66.0745 48.3798 66.4415 48.441C66.8162 48.5021 67.1527 48.6015 67.558 48.701C67.6077 48.7124 67.6612 48.6818 67.6727 48.6321C67.6841 48.5977 67.6765 48.5671 67.6574 48.548Z"
        fill="#371A45" />
    </g>
    <g opacity="0.2">
      <path opacity="0.2"
        d="M57.2696 45.8219C57.2199 45.6651 57.1434 45.6039 57.0631 45.5695C56.979 45.5313 56.8872 45.516 56.7993 45.5045C56.6196 45.4778 56.4437 45.4319 56.264 45.3975C55.9046 45.3286 55.549 45.2713 55.1858 45.2292C54.8226 45.1872 54.4593 45.1604 54.0961 45.1489C53.9126 45.1413 53.7329 45.1375 53.5493 45.1375C53.4576 45.1375 53.3696 45.1413 53.2741 45.1222C53.1823 45.1222 53.0905 45.1298 53.0064 45.3286C52.9796 45.386 52.9835 45.451 53.0064 45.5045L53.0102 45.5084C53.1058 45.6957 53.1899 45.7033 53.2779 45.6995C53.3658 45.6804 53.4538 45.6766 53.5417 45.6804C53.7176 45.6804 53.8896 45.6842 54.0693 45.6881C54.4173 45.6995 54.769 45.7301 55.117 45.7645C55.4649 45.8066 55.8128 45.8563 56.1569 45.9251C56.3252 45.9633 56.5011 45.9863 56.6655 46.0436C56.7496 46.0742 56.8299 46.1086 56.9216 46.1086C57.0096 46.1201 57.1013 46.1048 57.2275 45.9939C57.2734 45.9481 57.2887 45.8792 57.2696 45.8219Z"
        fill="#371A45" />
    </g>
    <g opacity="0.2">
      <path opacity="0.2"
        d="M65.0918 51.0603C64.6292 50.8729 64.1054 50.9379 63.6466 51.0832C63.1801 51.2285 62.7634 51.4541 62.3581 51.6758C61.9528 51.8976 61.5552 52.1194 61.1499 52.2876C60.7446 52.4558 60.324 52.5782 59.9111 52.6011C59.4981 52.6317 59.0967 52.5361 58.7182 52.3564C58.3396 52.1767 57.9955 51.9091 57.6514 51.6261C57.3111 51.3394 56.9747 51.0335 56.6038 50.7467C56.2329 50.46 55.8238 50.1962 55.3497 50.0356C54.8794 49.8788 54.3671 49.8406 53.8815 49.9056C53.3921 49.9744 52.9295 50.1312 52.4974 50.3262C51.6295 50.72 50.8572 51.24 50.0733 51.695C49.2972 52.15 48.4675 52.5055 47.611 52.7579C47.179 52.8841 46.7431 52.9835 46.2996 53.037C45.8561 53.1058 45.424 53.1555 44.9729 53.362C44.927 53.3849 44.9002 53.4423 44.9232 53.4881C44.9308 53.5111 44.9538 53.5264 44.9767 53.5417C45.4432 53.7176 45.9173 53.6793 46.3799 53.599C46.8387 53.5073 47.3013 53.404 47.7525 53.274C48.6548 53.0141 49.5304 52.6355 50.341 52.1614C51.1439 51.695 51.9086 51.1826 52.7153 50.8194C53.1168 50.6397 53.5336 50.4982 53.9503 50.4409C54.3671 50.3835 54.7877 50.4141 55.1815 50.5479C55.9729 50.8117 56.6153 51.4541 57.3111 52.0429C57.6667 52.3373 58.0414 52.6279 58.4849 52.842C58.9208 53.0561 59.437 53.1746 59.9378 53.1402C60.9434 53.0752 61.8037 52.5744 62.6143 52.1691C63.0195 51.9626 63.4248 51.7714 63.8263 51.6147C64.2354 51.4579 64.6254 51.3432 65.0765 51.2438C65.1263 51.2323 65.1607 51.1826 65.1492 51.1329C65.1454 51.0985 65.1186 51.0717 65.0918 51.0603Z"
        fill="#371A45" />
    </g>
    <g opacity="0.2">
      <path opacity="0.2"
        d="M59.636 56.5619C59.4219 56.279 59.1963 56.0687 58.963 55.8431L58.2557 55.1663C57.7892 54.6999 57.3075 54.1875 56.7302 53.7861C56.4396 53.5872 56.1299 53.4076 55.7819 53.289C55.4378 53.1667 55.0593 53.1093 54.677 53.1399C54.2984 53.1667 53.9314 53.2967 53.6102 53.4649C53.2852 53.637 52.9985 53.8549 52.7308 54.0843C52.1994 54.5469 51.7367 55.0325 51.2282 55.4722C50.7273 55.9196 50.2073 56.3401 49.6529 56.711C49.1062 57.0819 48.5212 57.4069 47.9133 57.6478C47.6074 57.7701 47.2977 57.8733 46.9765 57.9269C46.6592 57.9995 46.3495 58.0645 46.0321 58.2824C45.9863 58.313 45.9748 58.378 46.0054 58.4239C46.013 58.4392 46.0321 58.4507 46.0474 58.4583C46.4068 58.6189 46.7662 58.5654 47.1027 58.4813C47.443 58.378 47.7756 58.2748 48.1045 58.1448C48.7544 57.8848 49.37 57.5445 49.9512 57.1545C50.5285 56.7684 51.0676 56.3287 51.5838 55.8737C52.1038 55.4225 52.5817 54.9216 53.0788 54.4934C53.572 54.069 54.1264 53.7211 54.7228 53.6752C55.3193 53.6217 55.9158 53.8664 56.4319 54.2296C56.9519 54.5966 57.4145 55.0516 57.8695 55.5525C58.0951 55.801 58.336 56.0495 58.6113 56.2637C58.8827 56.474 59.1924 56.6689 59.5633 56.7187C59.6169 56.7263 59.6627 56.6881 59.6742 56.6384C59.6627 56.6116 59.6513 56.5848 59.636 56.5619Z"
        fill="#371A45" />
    </g>
    <g opacity="0.2">
      <path opacity="0.2"
        d="M49.2167 54.5545C49.0523 54.4818 48.9376 54.5048 48.8267 54.5392C48.7158 54.5736 48.6202 54.631 48.5208 54.6845C48.3258 54.7954 48.1117 54.8795 47.9052 54.9712C47.4885 55.1509 47.0641 55.3077 46.6358 55.453C46.2076 55.5983 45.7756 55.7245 45.3359 55.8353C45.1179 55.8927 44.9 55.9424 44.6744 55.9921C44.5635 56.0189 44.4527 56.038 44.3418 56.0418C44.2309 56.0609 44.12 56.0877 44.0397 56.298C44.0168 56.3591 44.0283 56.4241 44.0665 56.47C44.2118 56.6383 44.3265 56.623 44.4412 56.6C44.5521 56.558 44.6668 56.535 44.7815 56.5121C45.0071 56.4624 45.2365 56.4088 45.462 56.3515C45.9132 56.2368 46.3606 56.103 46.8002 55.9539C47.2399 55.8047 47.6796 55.6403 48.1079 55.4568C48.3258 55.3689 48.5323 55.2618 48.7502 55.1815C48.8611 55.1395 48.9681 55.1012 49.0676 55.0324C49.1631 54.9674 49.2549 54.8833 49.2931 54.7074C49.3161 54.6462 49.2817 54.5812 49.2167 54.5545Z"
        fill="#371A45" />
    </g>
    <g opacity="0.2">
      <path opacity="0.2"
        d="M57.4561 58.8023C57.4447 58.5308 57.33 58.3167 57.1923 58.1179C57.0547 57.9191 56.8865 57.7432 56.6991 57.5865C56.3321 57.2653 55.9115 56.9747 55.4259 56.8256C54.948 56.6688 54.428 56.6459 53.9309 56.7224C53.4377 56.8026 52.9674 56.9671 52.5316 57.1965C51.6598 57.6476 50.9295 58.3397 50.3751 59.1388C50.0998 59.5364 49.8628 59.9646 49.6754 60.4043L49.404 61.0734C49.3237 61.299 49.274 61.5399 49.4001 61.8114C49.4269 61.8687 49.4957 61.8917 49.5493 61.8611C49.5531 61.8572 49.5607 61.8572 49.5684 61.8496L49.5722 61.8458C49.8169 61.6622 49.8704 61.4558 49.9393 61.2417C49.989 61.0237 50.0692 60.8134 50.161 60.607C50.3407 60.1979 50.5548 59.8002 50.811 59.437C51.3233 58.7029 51.9886 58.0759 52.7686 57.6706C53.5371 57.2615 54.4509 57.0741 55.2462 57.3341C55.64 57.4603 56.0071 57.6897 56.3091 57.9917C56.4582 58.1485 56.5959 58.3091 56.7488 58.4697C56.9018 58.6302 57.0547 58.7908 57.2956 58.9017C57.3453 58.9285 57.4064 58.9055 57.437 58.852C57.4561 58.8329 57.4561 58.8176 57.4561 58.8023Z"
        fill="#371A45" />
    </g>
    <g opacity="0.2">
      <path opacity="0.2"
        d="M55.3805 60.886C55.4341 60.6949 55.3691 60.5458 55.2811 60.4272C55.1932 60.3011 55.0708 60.2093 54.9408 60.1328C54.6847 59.9761 54.3903 59.8575 54.0806 59.8384C53.465 59.7964 52.8609 60.064 52.4518 60.519C52.2491 60.7446 52.0962 61.0352 52.0312 61.3296C51.9624 61.6201 51.9547 61.9184 51.9777 62.1937C51.9968 62.4728 52.0503 62.7404 52.1038 63.0004C52.1306 63.1266 52.1612 63.2566 52.1727 63.3904C52.1956 63.5204 52.2338 63.6504 52.4479 63.7269C52.5091 63.7498 52.5741 63.7307 52.62 63.6848L52.6238 63.681C52.7844 63.5051 52.7615 63.3828 52.7309 63.2528C52.685 63.1304 52.6544 63.0081 52.6315 62.8781C52.5779 62.6257 52.5359 62.3772 52.5168 62.1363C52.4747 61.6507 52.5512 61.1919 52.8571 60.8631C53.1515 60.5305 53.6103 60.3316 54.0423 60.3661C54.2526 60.3852 54.4667 60.4464 54.6388 60.5878C54.7229 60.6566 54.7955 60.7369 54.8835 60.8019C54.9676 60.8708 55.0594 60.9319 55.2429 60.9702L55.2505 60.9702C55.2964 60.9931 55.3614 60.951 55.3805 60.886Z"
        fill="#371A45" />
    </g>
  </g>
  <g opacity="0.55">
    <path opacity="0.55"
      d="M50.67 62.997L52.0196 64.3467L72.001 44.3654C71.2554 43.6198 70.0472 43.6198 69.3016 44.3654L50.67 62.997Z"
      fill="white" />
  </g>
  <g opacity="0.3">
    <path opacity="0.3"
      d="M66.1166 32.0883L42.935 55.2698L45.0838 57.4186L62.8934 39.609C64.0787 38.4237 66.0057 38.4237 67.191 39.609L71.9741 44.3921L75.1973 41.1689L66.1166 32.0883Z"
      fill="#371A45" />
  </g>
  <path
    d="M38.9247 55.075L15.6017 78.398C14.5464 79.4533 14.5464 81.1662 15.6017 82.2214L24.9691 91.5889C25.2827 91.9024 25.6612 92.128 26.0588 92.2503C26.9917 92.5486 28.0547 92.3268 28.7926 91.5889L52.1156 68.2658C53.1709 67.2106 53.1709 65.4977 52.1156 64.4424L42.7482 55.075C41.6929 54.0197 39.98 54.0197 38.9247 55.075Z"
    fill="#F15A23" />
  <g opacity="0.3">
    <path opacity="0.3"
      d="M38.9245 55.0748L15.6015 78.3978C14.5462 79.4531 14.5462 81.166 15.6015 82.2212L18.71 85.3297C17.6547 84.2744 17.6547 82.5615 18.71 81.5063L42.033 58.1832C43.0883 57.128 44.8012 57.128 45.8564 58.1832L42.7442 55.0709C41.6927 54.0195 39.9798 54.0195 38.9245 55.0748Z"
      fill="#262F6A" />
  </g>
  <g opacity="0.55">
    <path opacity="0.55"
      d="M24.6097 90.8087C24.212 90.6787 23.8335 90.4608 23.52 90.1473L24.9652 91.5925C25.2788 91.9061 25.6573 92.1316 26.0549 92.254C26.9878 92.5522 28.0508 92.3305 28.7887 91.5925L52.1117 68.2695C53.167 67.2142 53.167 65.5013 52.1117 64.4461L50.6665 63.0008C51.7217 64.0561 51.7217 65.769 50.6665 66.8243L27.3434 90.1473C26.6055 90.8852 25.5426 91.107 24.6097 90.8087C24.6135 90.8049 24.6135 90.8049 24.6097 90.8087Z"
      fill="white" />
  </g>
  <g opacity="0.3">
    <path opacity="0.3" d="M94.5549 36.9134L86.346 42.5683L88.8962 45.1186L95.8281 38.1866L94.5549 36.9134Z"
      fill="#371A45" />
  </g>
</svg>