<svg width="85" height="67" viewBox="0 0 85 67" fill="none" xmlns="http://www.w3.org/2000/svg">
  <path
    d="M5.41381 29.3551C7.85418 29.3551 9.83249 27.3759 9.83249 24.9345C9.83249 22.4931 7.85418 20.514 5.41381 20.514C2.97343 20.514 0.995117 22.4931 0.995117 24.9345C0.995117 27.3759 2.97343 29.3551 5.41381 29.3551Z"
    fill="#FFC3A8" />
  <path opacity="0.2"
    d="M9.37846 26.8872L1.08405 24.0447C1.02611 24.3378 0.996326 24.6357 0.995117 24.9345C0.994912 25.9328 1.33248 26.9017 1.95286 27.6837C2.57325 28.4656 3.43992 29.0144 4.4118 29.2408C5.38368 29.4672 6.40354 29.3578 7.30536 28.9304C8.20718 28.5031 8.93786 27.7829 9.37846 26.8872Z"
    fill="#FF7063" />
  <path
    d="M84.9877 38.8752C84.9852 40.022 84.5288 41.1211 83.7182 41.932C82.9076 42.7429 81.809 43.1996 80.6626 43.2021H77.3861C75.0082 43.2021 75.9444 41.2587 75.9444 38.8752V28.3014C75.9444 25.9226 76.4499 23.9745 78.8278 23.9745H80.6533C81.7992 23.9783 82.8972 24.4353 83.7075 25.246C84.5178 26.0566 84.9746 27.155 84.9783 28.3014L84.9877 38.8752Z"
    fill="#FFC3A8" />
  <g style="mix-blend-mode:overlay" opacity="0.5">
    <path
      d="M75.9536 28.3015V30.0294H84.9876V28.3015C84.9872 27.7644 84.8856 27.2321 84.688 26.7327H76.0566C75.9829 27.2523 75.9485 27.7767 75.9536 28.3015Z"
      fill="#FFFCFF" />
  </g>
  <path opacity="0.2"
    d="M75.9532 33.0638V38.8751C75.9532 41.2587 75.017 43.202 77.3949 43.202H80.6714C81.8161 43.1971 82.9124 42.7393 83.7209 41.9287C84.5295 41.118 84.9847 40.0203 84.9871 38.8751V33.0638H75.9532Z"
    fill="#FF7063" />
  <path
    d="M52.3489 2.55542H33.9439C26.5121 2.57765 19.391 5.54103 14.1359 10.7983C8.88084 16.0557 5.91871 23.1797 5.89648 30.6147V31.3499C5.9031 35.7348 6.93671 40.0572 8.91443 43.9704C10.8921 47.8836 13.7589 51.2787 17.2849 53.8835L16.3487 60.3738C16.2217 61.0849 16.2548 61.8154 16.4457 62.5121C16.6366 63.2088 16.9805 63.854 17.4522 64.4009C17.924 64.9478 18.5118 65.3825 19.1727 65.6734C19.8337 65.9642 20.5512 66.1038 21.273 66.0821H22.3308C23.9196 66.0376 25.4441 65.445 26.6461 64.4047C27.848 63.3643 28.6535 61.9403 28.9261 60.3738L29.1274 58.969C30.718 59.2454 32.3294 59.3849 33.9439 59.3857H52.3489C52.6204 59.3857 52.8965 59.3857 53.168 59.3857L53.3085 60.3644C53.5818 61.9305 54.3876 63.3541 55.5894 64.3943C56.7912 65.4344 58.3152 66.0274 59.9037 66.0727H60.9616C61.6842 66.0957 62.4029 65.9571 63.0652 65.6669C63.7275 65.3767 64.3167 64.9423 64.7899 64.3954C65.263 63.8484 65.6082 63.2028 65.8002 62.5054C65.9923 61.808 66.0263 61.0766 65.8998 60.3644L65.2913 56.2108C69.8357 53.8362 73.6448 50.2642 76.3071 45.8808C78.9693 41.4975 80.3833 36.4696 80.3963 31.3405V30.6147C80.3753 23.1794 77.4136 16.0546 72.1582 10.797C66.9029 5.53941 59.7811 2.57643 52.3489 2.55542Z"
    fill="#FFC3A8" />
  <g style="mix-blend-mode:overlay" opacity="0.5">
    <g style="mix-blend-mode:overlay" opacity="0.5">
      <path
        d="M15.8055 20.7809C15.3839 20.7789 14.9715 20.6571 14.6165 20.4297C14.1287 20.1142 13.7861 19.6177 13.6641 19.0496C13.5421 18.4814 13.6507 17.888 13.9659 17.3999C16.276 13.7912 19.4562 10.8216 23.2139 8.76444C26.9716 6.70724 31.186 5.62847 35.4696 5.62738H50.8226C51.4036 5.62738 51.9608 5.85827 52.3716 6.26927C52.7825 6.68026 53.0132 7.23769 53.0132 7.81893C53.0132 8.40016 52.7825 8.95759 52.3716 9.36858C51.9608 9.77958 51.4036 10.0105 50.8226 10.0105H35.4696C31.9179 10.0119 28.4237 10.9073 25.3087 12.6144C22.1938 14.3215 19.5583 16.7852 17.645 19.7788C17.4464 20.0862 17.174 20.339 16.8527 20.514C16.5314 20.6891 16.1713 20.7808 15.8055 20.7809Z"
        fill="#FFFCFF" />
    </g>
  </g>
  <path
    d="M57.062 5.62739C55.6578 4.85005 55.8076 3.87603 57.3382 3.46862L69.9764 0.0970173C71.5117 -0.310385 72.4151 0.602758 71.9891 2.13403L69.8875 9.67332C69.8146 10.0147 69.6599 10.3333 69.4366 10.6017C69.2134 10.87 68.9282 11.08 68.6058 11.2136C68.2834 11.3472 67.9334 11.4005 67.5859 11.3687C67.2384 11.337 66.9038 11.2212 66.6109 11.0313L57.062 5.62739Z"
    fill="#FFC3A8" />
  <path opacity="0.3"
    d="M80.3729 30.9145V31.3828C80.3729 42.4622 66.6956 51.5188 55.6161 51.5188H30.8686C19.7938 51.5188 6.11648 42.4482 6.11648 31.3828V30.9145H5.89648V31.3828C5.90821 35.7622 6.94428 40.078 8.92179 43.9851C10.8993 47.8922 13.7634 51.2821 17.2849 53.8836L16.3487 60.3739C16.2217 61.085 16.2548 61.8155 16.4457 62.5122C16.6366 63.2089 16.9805 63.8542 17.4522 64.401C17.924 64.9479 18.5118 65.3826 19.1727 65.6735C19.8337 65.9643 20.5512 66.1039 21.273 66.0822H22.3308C23.9196 66.0377 25.4441 65.4451 26.6461 64.4048C27.848 63.3645 28.6535 61.9404 28.9261 60.3739L29.1274 58.9691C30.718 59.2455 32.3294 59.385 33.9439 59.3858H52.3489C52.6204 59.3858 52.8965 59.3858 53.168 59.3858L53.3085 60.3645C53.5818 61.9306 54.3876 63.3542 55.5894 64.3944C56.7912 65.4346 58.3152 66.0275 59.9037 66.0729H60.9616C61.6842 66.0959 62.4029 65.9572 63.0652 65.667C63.7275 65.3768 64.3167 64.9424 64.7899 64.3955C65.263 63.8486 65.6082 63.2029 65.8002 62.5055C65.9923 61.8082 66.0263 61.0767 65.8998 60.3645L65.2913 56.2109C69.8357 53.8363 73.6448 50.2643 76.3071 45.8809C78.9693 41.4976 80.3833 36.4697 80.3963 31.3406V30.9145H80.3729Z"
    fill="#FF7063" />
  <path opacity="0.2"
    d="M71.3668 0.14856L65.3848 10.343L66.6205 11.0407C66.9134 11.2306 67.248 11.3464 67.5955 11.3781C67.943 11.4099 68.2931 11.3566 68.6155 11.223C68.9379 11.0894 69.223 10.8794 69.4462 10.6111C69.6695 10.3427 69.8242 10.0241 69.8971 9.68271L71.9988 2.14343C72.2796 1.16004 72.0034 0.43421 71.3668 0.14856Z"
    fill="#FF7063" />
  <path opacity="0.6"
    d="M72.1812 22.5744C72.1812 22.9942 72.0568 23.4045 71.8236 23.7535C71.5904 24.1024 71.2589 24.3743 70.8712 24.5347C70.4835 24.6951 70.0569 24.7369 69.6454 24.6546C69.234 24.5724 68.8562 24.3699 68.5598 24.0728C68.2635 23.7756 68.0619 23.3972 67.9806 22.9854C67.8993 22.5736 67.942 22.1469 68.1032 21.7594C68.2644 21.3719 68.5369 21.0409 68.8862 20.8084C69.2355 20.5758 69.6459 20.4522 70.0655 20.4531C70.3438 20.4531 70.6193 20.508 70.8763 20.6147C71.1333 20.7214 71.3667 20.8777 71.5632 21.0747C71.7597 21.2718 71.9155 21.5057 72.0215 21.763C72.1276 22.0203 72.1819 22.2961 72.1812 22.5744Z"
    fill="#9B625C" />
</svg>