<svg width="20" height="20" viewBox="0 0 20 20" fill="none" xmlns="http://www.w3.org/2000/svg">
<path d="M19.3187 8.05078L17.5788 7.47082C17.4605 7.11111 17.3168 6.76025 17.1488 6.4209L17.9988 4.79101C18.0913 4.60354 18.1227 4.39178 18.0887 4.18551C18.0546 3.97925 17.9567 3.78885 17.8088 3.6411L16.3589 2.2212C16.2147 2.06834 16.0259 1.96481 15.8195 1.92532C15.6131 1.88583 15.3995 1.91238 15.209 2.00122L13.5791 2.82116C13.2397 2.65316 12.8889 2.50948 12.5292 2.39119L11.9992 0.681311C11.9296 0.474345 11.7942 0.29584 11.6137 0.173062C11.4331 0.0502827 11.2173 -0.0100214 10.9993 0.00135986H8.99944C8.78981 0.000818737 8.58531 0.0661741 8.41485 0.188188C8.24439 0.310202 8.11659 0.482704 8.04951 0.681311L7.46955 2.42118C7.10984 2.53948 6.75898 2.68316 6.41962 2.85115L4.78974 2.00122C4.60226 1.9087 4.39051 1.87727 4.18424 1.91135C3.97797 1.94543 3.78758 2.0433 3.63982 2.1912L2.21993 3.6411C2.06706 3.78533 1.96353 3.97407 1.92404 4.18049C1.88455 4.38692 1.91111 4.60054 1.99994 4.79101L2.81988 6.4209C2.65189 6.76025 2.50821 7.11111 2.38991 7.47082L0.65004 8.05078C0.45704 8.12287 0.291019 8.25282 0.17468 8.42285C0.0583412 8.59288 -0.00263577 8.7947 8.73926e-05 9.00071V11.0006C-0.00045373 11.2102 0.0649016 11.4147 0.186916 11.5852C0.30893 11.7556 0.481432 11.8834 0.680038 11.9505L2.41991 12.5305C2.53821 12.8902 2.68189 13.241 2.84988 13.5804L1.99994 15.2103C1.90743 15.3977 1.876 15.6095 1.91007 15.8158C1.94415 16.022 2.04203 16.2124 2.18993 16.3602L3.60983 17.7801C3.7562 17.9395 3.95035 18.0471 4.16311 18.0868C4.37587 18.1265 4.59575 18.096 4.78974 18.0001L6.41962 17.1801C6.75898 17.3481 7.10984 17.4918 7.46955 17.6101L8.04951 19.35C8.1216 19.543 8.25154 19.709 8.42158 19.8253C8.59161 19.9417 8.79343 20.0026 8.99944 19.9999H10.9993C11.2089 20.0005 11.4134 19.9351 11.5839 19.8131C11.7543 19.6911 11.8821 19.5186 11.9492 19.32L12.5292 17.5801C12.8889 17.4618 13.2397 17.3181 13.5791 17.1501L15.209 17.9701C15.3965 18.0626 15.6082 18.094 15.8145 18.0599C16.0208 18.0258 16.2111 17.928 16.3589 17.7801L17.7788 16.3602C17.9317 16.2159 18.0352 16.0272 18.0747 15.8208C18.1142 15.6144 18.0876 15.4007 17.9988 15.2103L17.1788 13.5804C17.3468 13.241 17.4905 12.8902 17.6088 12.5305L19.3187 12.0005C19.5257 11.9309 19.7042 11.7955 19.8269 11.615C19.9497 11.4344 20.01 11.2186 19.9986 11.0006V9.00071C19.9992 8.79108 19.9338 8.58658 19.8118 8.41612C19.6898 8.24566 19.5173 8.11786 19.3187 8.05078ZM9.99936 14.0003C9.2083 14.0003 8.43499 13.7658 7.77724 13.3263C7.11949 12.8868 6.60684 12.2621 6.30411 11.5313C6.00138 10.8004 5.92218 9.9962 6.07651 9.22033C6.23084 8.44446 6.61177 7.73178 7.17114 7.17241C7.73051 6.61304 8.44319 6.23211 9.21906 6.07778C9.99493 5.92345 10.7991 6.00266 11.53 6.30539C12.2608 6.60811 12.8855 7.12077 13.325 7.77852C13.7645 8.43627 13.9991 9.20957 13.9991 10.0006C13.9991 11.0614 13.5777 12.0788 12.8276 12.8289C12.0775 13.5789 11.0602 14.0003 9.99936 14.0003Z" fill="#009CE2"/>
</svg>
